<svg width="50" height="50" viewBox="0 0 50 50" fill="none" xmlns="http://www.w3.org/2000/svg">
<path d="M5 4C4.45 4 4 4.45 4 5V15C4 15.55 4.45 16 5 16H45C45.55 16 46 15.55 46 15V5C46 4.45 45.55 4 45 4H5ZM10 9C10.55 9 11 9.45 11 10C11 10.55 10.55 11 10 11C9.45 11 9 10.55 9 10C9 9.45 9.45 9 10 9ZM14 9C14.55 9 15 9.45 15 10C15 10.55 14.55 11 14 11C13.45 11 13 10.55 13 10C13 9.45 13.45 9 14 9ZM18 9C18.55 9 19 9.45 19 10C19 10.55 18.55 11 18 11C17.45 11 17 10.55 17 10C17 9.45 17.45 9 18 9ZM4 19V45C4.00003 45.2652 4.10539 45.5195 4.29292 45.7071C4.48045 45.8946 4.73479 46 5 46H45C45.2652 46 45.5195 45.8946 45.7071 45.7071C45.8946 45.5195 46 45.2652 46 45V19H44V44H6V19H4ZM10 19C9.448 19 9 19.447 9 20V40C9 40.553 9.448 41 10 41H23C23.552 41 24 40.553 24 40V20C24 19.447 23.552 19 23 19H10ZM27 19V21H41V19H27ZM27 24V26H41V24H27ZM27 29V31H41V29H27ZM27 34V36H41V34H27ZM27 39V41H41V39H27Z" fill="url(#paint0_linear_177_1792)"/>
<defs>
<linearGradient id="paint0_linear_177_1792" x1="51.3846" y1="4" x2="3.98131" y2="45.9976" gradientUnits="userSpaceOnUse">
<stop offset="0.25" stop-color="#3B768F"/>
<stop offset="0.536458" stop-color="#3EC6FF"/>
<stop offset="0.817708" stop-color="#3B768F"/>
</linearGradient>
</defs>
</svg>
