<svg width="50" height="50" viewBox="0 0 50 50" fill="none" xmlns="http://www.w3.org/2000/svg">
<path d="M17 0C16.4492 0 16 0.449219 16 1V9C16 9.55078 16.4492 10 17 10H33C33.5547 10 34 9.55078 34 9V1C34 0.449219 33.5547 0 33 0H17ZM8 2C6.34766 2 5 3.34766 5 5V47C5 48.6523 6.34766 50 8 50H42C43.6523 50 45 48.6523 45 47V5C45 3.34766 43.6523 2 42 2H36V6H41V46H9V6H14V2H8ZM11 8V44H39V8H36V9C36 10.6523 34.6523 12 33 12H17C15.3477 12 14 10.6523 14 9V8H11ZM15 17H23V25H15V17ZM17 19V23H21V19H17ZM26 20H35V22H26V20ZM15 30H23V38H15V30ZM17 32V36H21V32H17ZM18 33H20V35H18V33ZM26 33H35V35H26V33Z" fill="url(#paint0_linear_177_1798)"/>
<defs>
<linearGradient id="paint0_linear_177_1798" x1="50.1282" y1="1.42987e-06" x2="-3.50923" y2="38.0167" gradientUnits="userSpaceOnUse">
<stop offset="0.25" stop-color="#3B768F"/>
<stop offset="0.536458" stop-color="#3EC6FF"/>
<stop offset="0.817708" stop-color="#3B768F"/>
</linearGradient>
</defs>
</svg>
