<svg width="50" height="50" viewBox="0 0 50 50" fill="none" xmlns="http://www.w3.org/2000/svg">
<path d="M27.0938 4C17.2227 4 13.6641 11.5664 16.5 17.9688C16.1836 18.1797 15.5508 18.8984 15.6562 20.1562C15.9727 22.4688 16.9141 23.125 17.4375 23.125C17.6484 25.3281 19.1094 27.832 19.8438 28.25C19.8438 29.8242 19.9609 29.5078 19.75 31.1875C19.5625 31.7656 19.2266 32.2773 18.7812 32.7188L24.0938 35H25.9062L31.2188 32.875C30.7344 32.4219 30.3633 31.8867 30.1562 31.2812C30.0508 29.6016 30.0312 29.8438 30.0312 28.375C30.7656 27.9531 32.1523 25.3203 32.4688 23.2188C33.0977 23.2188 34.0391 22.5898 34.25 20.2812C34.3555 19.0195 33.9336 18.168 33.4062 18.0625C35.2969 15.6484 34.9805 6.09375 28.1562 6.09375L27.0938 4ZM16.8438 34.0625C12.4727 36.3672 5 37.4375 5 45C5 45 5 46 6 46H22L24 39L23.0938 36.75L16.8438 34.0625ZM33.25 34.2188L26.9062 36.75L26 39L28 46H44C45.0312 46 45 45 45 45C45 37.5234 37.6758 36.4375 33.25 34.2188Z" fill="url(#paint0_linear_177_1780)"/>
<defs>
<linearGradient id="paint0_linear_177_1780" x1="50.1283" y1="4" x2="3.05786" y2="43.717" gradientUnits="userSpaceOnUse">
<stop offset="0.25" stop-color="#3B768F"/>
<stop offset="0.536458" stop-color="#3EC6FF"/>
<stop offset="0.817708" stop-color="#3B768F"/>
</linearGradient>
</defs>
</svg>
