<svg width="50" height="50" viewBox="0 0 50 50" fill="none" xmlns="http://www.w3.org/2000/svg">
<g clip-path="url(#clip0_177_1810)">
<path d="M49.9961 27.9414C49.7852 24.3828 47.3945 23.25 45.6484 22.4258C44.7383 21.9922 43.9492 21.6211 43.6641 21.043C43.6211 20.4805 43.625 20.0273 43.6289 19.5117V19.4336C44.1289 18.8516 44.5508 17.9023 44.75 17.043C45.1914 16.7383 45.6523 16.1367 45.8008 14.9297C45.8711 14.3164 45.7305 13.8203 45.5039 13.4492C45.8477 12.1953 46.3906 9.46484 45.2461 7.625C44.7461 6.81641 43.9766 6.27734 43.0039 6.04688C42.3828 5.36719 41.3164 5 39.9336 5H39.9297C37.7852 5.03906 36.2031 5.71094 35.2266 6.99609C34.1172 8.46094 33.8789 10.6172 34.5156 13.418C34.2773 13.793 34.125 14.3047 34.1992 14.9336C34.3477 16.1445 34.8125 16.7461 35.2539 17.0469C35.4609 17.8984 35.8945 18.8516 36.4023 19.4375V19.5156C36.4062 20.0273 36.4102 20.4805 36.3672 21.0391C36.2305 21.2891 35.9492 21.5117 35.5508 21.7266C34.6133 19.1797 32.4258 18.1719 30.7734 17.4102C29.793 16.9609 28.9414 16.5664 28.6641 16.0391C28.6211 15.4805 28.625 15.0312 28.6289 14.5156L28.6328 14.4336C29.1289 13.8516 29.5547 12.9062 29.7539 12.043C30.1914 11.7422 30.6562 11.1367 30.8008 9.92969C30.875 9.32031 30.7344 8.82031 30.5078 8.44922C30.8477 7.19531 31.3906 4.46484 30.25 2.62891C29.7461 1.82031 28.9766 1.27734 28.0078 1.04688C27.5156 0.511719 26.6133 0.015625 24.9336 0.015625C22.7852 0.0585938 21.1992 0.726563 20.2266 2.01172C19.1172 3.47266 18.8828 5.625 19.5195 8.41797C19.2812 8.79297 19.1289 9.30469 19.2031 9.93359C19.3477 11.1445 19.8125 11.7461 20.2578 12.0469C20.4609 12.8984 20.8984 13.8516 21.4023 14.4375V14.5195C21.4062 15.0352 21.4102 15.4844 21.3672 16.0391C21.0898 16.5664 20.2344 16.9609 19.25 17.4102C17.5898 18.1719 15.3945 19.1797 14.4531 21.7266C14.0547 21.5117 13.7695 21.2891 13.6367 21.0391C13.5938 20.4766 13.5977 20.0234 13.6016 19.5039V19.4375C14.1055 18.8516 14.543 17.8984 14.7461 17.0469C15.1875 16.7422 15.6523 16.1406 15.8008 14.9297C15.875 14.3008 15.7227 13.7891 15.4844 13.4141C16.1211 10.6172 15.8828 8.45703 14.7734 6.99609C13.7969 5.71094 12.2148 5.03906 10.0508 5C8.67969 5 7.61719 5.36719 6.99609 6.04688C6.02344 6.27734 5.25391 6.82031 4.75 7.62891C3.60938 9.46484 4.15234 12.1953 4.49609 13.4492C4.26953 13.8203 4.12891 14.3203 4.19922 14.9336C4.34766 16.1406 4.80859 16.7422 5.25 17.0469C5.44922 17.9062 5.87109 18.8516 6.37109 19.4336V19.5156C6.375 20.0312 6.37891 20.4844 6.33594 21.0469C6.05078 21.6211 5.25781 21.9961 4.35156 22.4258C2.60547 23.25 0.214844 24.3828 0 28V39C0 39.0664 0.0078125 39.1328 0.0195313 39.1992C0.078125 39.4922 1.54688 46.0156 11.5234 49.2891C11.5234 49.2891 11.6875 49.4336 12.9805 49.5859C12.9766 49.1445 12.9766 48.4102 13.0156 47.6836C13.3906 44.0312 16.332 42.8398 18.4961 41.9609C19.6758 41.4844 20.7891 41.0312 21.1211 40.3828C21.1719 39.7656 21.1641 39.2656 21.1602 38.6992V38.5859C20.6055 37.957 20.1211 36.8984 19.9023 35.9609C19.4336 35.6523 18.9258 35.0156 18.7695 33.7031C18.6875 33.0273 18.8594 32.4805 19.1172 32.0859C18.418 29.0508 18.668 26.7148 19.8672 25.1367C20.9102 23.7617 22.6094 23.0391 24.9141 23C26.4102 23 27.5508 23.3945 28.207 24.1289C29.2539 24.3711 30.0859 24.9492 30.6211 25.8125C31.8555 27.8008 31.25 30.7812 30.8789 32.1172C31.1289 32.5117 31.2891 33.0469 31.2109 33.707C31.0508 35.0156 30.5469 35.6523 30.0742 35.9609C29.8594 36.8984 29.3906 37.9531 28.8477 38.5781L28.8438 38.6992C28.8398 39.2656 28.8359 39.7617 28.8828 40.3828C29.2188 41.0352 30.3281 41.4883 31.5 41.9609C33.668 42.8438 36.6172 44.043 36.9688 47.6836C37.0117 48.2148 37 49.2227 36.9922 49.6602C37.9336 49.5547 37.9922 49.4609 37.9922 49.4609C48.4258 46.2422 49.918 39.5039 49.9805 39.1992C49.9922 39.1328 50 39.0664 50 39L49.9961 27.9414Z" fill="url(#paint0_linear_177_1810)"/>
</g>
<defs>
<linearGradient id="paint0_linear_177_1810" x1="56.4103" y1="0.0156264" x2="0.332164" y2="50.0545" gradientUnits="userSpaceOnUse">
<stop offset="0.25" stop-color="#3B768F"/>
<stop offset="0.536458" stop-color="#3EC6FF"/>
<stop offset="0.817708" stop-color="#3B768F"/>
</linearGradient>
<clipPath id="clip0_177_1810">
<rect width="50" height="50" fill="white"/>
</clipPath>
</defs>
</svg>
