<svg width="50" height="50" viewBox="0 0 50 50" fill="none" xmlns="http://www.w3.org/2000/svg">
<path d="M26.9062 5C18.0391 5 14.7461 11.8516 17.2812 17.6562C16.9648 17.8672 16.457 18.5273 16.5625 19.6875C16.7734 21.7969 17.7227 22.3008 18.25 22.4062C18.4609 24.4102 19.7305 26.7461 20.4688 27.0625C20.4688 28.4336 20.4492 29.582 20.3438 31.0625C18.7266 35.3086 8.39062 34.3242 7.0625 41.9375C7.00391 42.2695 7.34766 43 8.03125 43H42C43.0156 43 42.9961 42.25 42.9375 41.9062C41.5859 34.3242 31.2734 35.3047 29.6562 31.0625C29.5508 29.4766 29.5312 28.4336 29.5312 27.0625C30.2695 26.7461 31.4453 24.3047 31.6562 22.4062C32.1836 22.4062 33.0273 21.7695 33.3438 19.6562C33.4492 18.4961 33.0156 17.7617 32.5938 17.6562C34.2812 15.5469 33.9766 6.90625 27.75 6.90625L26.9062 5ZM15.1562 10C8.48047 10.1133 5.55469 15.4258 7.5625 19.9688C7.34766 20.0742 6.92578 20.6328 7.03125 21.5938C7.24609 23.3047 7.88281 23.7188 8.3125 23.7188C8.52344 25.3203 9.46875 27.1172 10 27.4375C10 28.5039 10.0117 28.4727 9.90625 29.75C9.03906 32.4844 0 32.2812 0 39C0 39 0 40 1 40H5.53125C7.05859 35.6797 11.2109 34.0156 14.3438 32.7812C16.0703 32.1016 17.8398 31.4141 18.375 30.5625C18.4336 29.6328 18.4648 28.8438 18.4688 27.9688C17.5195 26.8828 16.8125 25.1914 16.4688 23.75C15.6562 23.1484 14.7773 21.9922 14.5625 19.8438C14.4688 18.8242 14.6836 17.9766 15.0312 17.3125C14.2383 14.8477 14.2891 12.2734 15.1562 10ZM38 10C37.043 10 35.9141 10.0781 34.8438 10.25C35.6445 12.5977 35.6758 15.4023 34.9688 17.4062C35.2812 18.0938 35.4258 18.9297 35.3438 19.8438L35.3125 19.9062V19.9688C35.0156 21.9336 34.293 23.1289 33.4375 23.7812C33.1133 25.1328 32.4531 26.8398 31.5312 27.9375C31.5352 28.7969 31.5664 29.5703 31.625 30.5625C32.1602 31.4141 33.9336 32.1016 35.6562 32.7812C38.7852 34.0117 42.9375 35.6797 44.4688 40H49C50 40 50 39.0312 50 39.0312C50.0039 31.2969 41.4414 33.1289 40.1562 29.5938C40.0469 28.4141 40.0312 28.5234 40.0312 27.3438C40.5664 27.0234 41.5508 25.2227 41.6562 23.7188C42.0859 23.7188 42.7227 23.2773 42.9375 21.5625C43.043 20.707 42.7266 20.0742 42.4062 19.9688C43.6953 18.2539 43.4844 11.5 38.6562 11.5L38 10Z" fill="url(#paint0_linear_177_1804)"/>
<defs>
<linearGradient id="paint0_linear_177_1804" x1="56.4103" y1="5" x2="13.7099" y2="54.7776" gradientUnits="userSpaceOnUse">
<stop offset="0.25" stop-color="#3B768F"/>
<stop offset="0.536458" stop-color="#3EC6FF"/>
<stop offset="0.817708" stop-color="#3B768F"/>
</linearGradient>
</defs>
</svg>
