<svg width="50" height="50" viewBox="0 0 50 50" fill="none" xmlns="http://www.w3.org/2000/svg">
<path d="M6 3C4.346 3 3 4.346 3 6V16C3 17.654 4.346 19 6 19H9V21C8.99813 21.1325 9.02261 21.2641 9.07202 21.387C9.12143 21.51 9.1948 21.6219 9.28784 21.7163C9.38088 21.8107 9.49176 21.8856 9.61401 21.9368C9.73627 21.9879 9.86748 22.0142 10 22.0142C10.1325 22.0142 10.2637 21.9879 10.386 21.9368C10.5082 21.8856 10.6191 21.8107 10.7122 21.7163C10.8052 21.6219 10.8786 21.51 10.928 21.387C10.9774 21.2641 11.0019 21.1325 11 21V19H16C17.654 19 19 17.654 19 16V12H24C24.1325 12.0019 24.2641 11.9774 24.387 11.928C24.51 11.8786 24.6219 11.8052 24.7163 11.7122C24.8107 11.6191 24.8856 11.5082 24.9368 11.386C24.9879 11.2637 25.0142 11.1325 25.0142 11C25.0142 10.8675 24.9879 10.7363 24.9368 10.614C24.8856 10.4918 24.8107 10.3809 24.7163 10.2878C24.6219 10.1948 24.51 10.1214 24.387 10.072C24.2641 10.0226 24.1325 9.99813 24 10H19V6C19 4.346 17.654 3 16 3H6ZM34 3C32.346 3 31 4.346 31 6V10H28C27.8675 9.99813 27.7359 10.0226 27.613 10.072C27.49 10.1214 27.3781 10.1948 27.2837 10.2878C27.1893 10.3809 27.1144 10.4918 27.0632 10.614C27.0121 10.7363 26.9858 10.8675 26.9858 11C26.9858 11.1325 27.0121 11.2637 27.0632 11.386C27.1144 11.5082 27.1893 11.6191 27.2837 11.7122C27.3781 11.8052 27.49 11.8786 27.613 11.928C27.7359 11.9774 27.8675 12.0019 28 12H31V16C31 17.654 32.346 19 34 19H38V24C37.9981 24.1325 38.0226 24.2641 38.072 24.387C38.1214 24.51 38.1948 24.6219 38.2878 24.7163C38.3809 24.8107 38.4918 24.8856 38.614 24.9368C38.7363 24.9879 38.8675 25.0142 39 25.0142C39.1325 25.0142 39.2637 24.9879 39.386 24.9368C39.5082 24.8856 39.6191 24.8107 39.7122 24.7163C39.8052 24.6219 39.8786 24.51 39.928 24.387C39.9774 24.2641 40.0019 24.1325 40 24V19H44C45.654 19 47 17.654 47 16V6C47 4.346 45.654 3 44 3H34ZM9.98438 23.9863C9.7195 23.9905 9.46709 24.0995 9.28254 24.2896C9.09799 24.4796 8.99637 24.7351 9 25V31H6C4.346 31 3 32.346 3 34V44C3 45.654 4.346 47 6 47H16C17.654 47 19 45.654 19 44V40H22C22.1325 40.0019 22.2641 39.9774 22.387 39.928C22.51 39.8786 22.6219 39.8052 22.7163 39.7122C22.8107 39.6191 22.8856 39.5082 22.9368 39.386C22.9879 39.2637 23.0142 39.1325 23.0142 39C23.0142 38.8675 22.9879 38.7363 22.9368 38.614C22.8856 38.4918 22.8107 38.3809 22.7163 38.2878C22.6219 38.1948 22.51 38.1214 22.387 38.072C22.2641 38.0226 22.1325 37.9981 22 38H19V34C19 32.346 17.654 31 16 31H11V25C11.0018 24.8662 10.9768 24.7334 10.9264 24.6095C10.876 24.4855 10.8012 24.373 10.7065 24.2784C10.6118 24.1839 10.4991 24.1094 10.375 24.0592C10.251 24.009 10.1182 23.9842 9.98438 23.9863ZM38.9844 26.9863C38.7195 26.9905 38.4671 27.0995 38.2825 27.2896C38.098 27.4796 37.9964 27.7351 38 28V30H34C32.346 30 31 31.346 31 33V38H26C25.8675 37.9981 25.7359 38.0226 25.613 38.072C25.49 38.1214 25.3781 38.1948 25.2837 38.2878C25.1893 38.3809 25.1144 38.4918 25.0632 38.614C25.0121 38.7363 24.9858 38.8675 24.9858 39C24.9858 39.1325 25.0121 39.2637 25.0632 39.386C25.1144 39.5082 25.1893 39.6191 25.2837 39.7122C25.3781 39.8052 25.49 39.8786 25.613 39.928C25.7359 39.9774 25.8675 40.0019 26 40H31V43C31 44.654 32.346 46 34 46H44C45.654 46 47 44.654 47 43V33C47 31.346 45.654 30 44 30H40V28C40.0018 27.8662 39.9768 27.7334 39.9264 27.6095C39.876 27.4855 39.8012 27.373 39.7065 27.2784C39.6118 27.1839 39.4991 27.1094 39.375 27.0592C39.251 27.009 39.1182 26.9842 38.9844 26.9863Z" fill="url(#paint0_linear_177_1786)"/>
<defs>
<linearGradient id="paint0_linear_177_1786" x1="52.641" y1="3" x2="2.98042" y2="46.9975" gradientUnits="userSpaceOnUse">
<stop offset="0.25" stop-color="#3B768F"/>
<stop offset="0.536458" stop-color="#3EC6FF"/>
<stop offset="0.817708" stop-color="#3B768F"/>
</linearGradient>
</defs>
</svg>
