<svg xmlns="http://www.w3.org/2000/svg">
  <symbol id="planet" viewBox="0 0 56 56" fill="none">
    <g filter="url(#filter0_f_28_159)">
      <path
        d="M47.1065 8.89379C45.2743 7.06152 40.9262 8.13637 35.5916 11.3083C33.2784 10.2543 30.7076 9.66644 28.0001 9.66644C17.8744 9.66644 9.66647 17.875 9.66647 28.0001C9.66647 30.7089 10.2537 33.2796 11.3083 35.5917C8.13577 40.9261 7.06155 45.2743 8.89256 47.1065C10.7261 48.9388 15.0742 47.8646 20.4075 44.692C22.7207 45.7454 25.2915 46.3339 28.0002 46.3339C38.1247 46.3339 46.3339 38.1259 46.3339 28.0002C46.3339 25.2927 45.7455 22.7219 44.6908 20.4093C47.8647 15.0747 48.9389 10.7261 47.1065 8.89379ZM17.8768 44.2038C13.5703 46.4803 10.8542 46.7097 10.0718 45.9285C9.28928 45.146 9.52006 42.43 11.7966 38.1221C11.9321 37.8646 12.0749 37.6033 12.2215 37.3409C13.4715 39.4466 15.1304 41.2825 17.0896 42.7352C17.0933 42.7328 17.0957 42.7328 17.0981 42.7304C17.6206 42.4545 18.154 42.1542 18.696 41.8319C17.8097 41.235 16.9809 40.5514 16.2143 39.786C14.6835 38.254 13.4812 36.4705 12.6425 34.4869C11.7733 32.4325 11.3326 30.2511 11.3326 28.0001C11.3326 25.7492 11.7733 23.5665 12.6425 21.5133C13.4811 19.5285 14.6835 17.7463 16.2143 16.2149C17.7462 14.6835 19.5285 13.4818 21.5133 12.6425C23.5665 11.774 25.7491 11.3333 28.0001 11.3333C30.2511 11.3333 32.4325 11.774 34.4869 12.6425C36.4706 13.4818 38.254 14.6836 39.7848 16.2149C40.5513 16.9809 41.2349 17.8104 41.8319 18.6966C42.1541 18.154 42.4544 17.6206 42.7303 17.0987C42.7315 17.0957 42.7327 17.0932 42.7351 17.0902C41.2813 15.131 39.4465 13.4721 37.3408 12.2221C37.6033 12.075 37.8645 11.9328 38.1221 11.7967C42.4287 9.52004 45.146 9.28996 45.9285 10.0718C46.7098 10.8543 46.4802 13.571 44.2037 17.8776C43.0342 20.0907 41.4669 22.479 39.5455 24.9766C37.5411 27.5828 35.2425 30.1866 32.7144 32.7146C30.1851 35.2427 27.5813 37.5413 24.9764 39.5469C22.4788 41.4671 20.0899 43.0345 17.8768 44.2038ZM43.3578 34.4869C42.518 36.4706 41.3168 38.254 39.7848 39.786C38.254 41.3168 36.4706 42.5179 34.487 43.3578C32.4326 44.2268 30.25 44.6663 28.0002 44.6663C25.9787 44.6663 24.0123 44.3099 22.1445 43.6068C25.8457 41.1897 29.9142 37.8707 33.8925 33.8924C37.8708 29.9141 41.1898 25.8449 43.608 22.1437C44.31 24.0114 44.6664 25.978 44.6664 28.0001C44.6664 30.2511 44.2257 32.4325 43.3578 34.4869Z"
        fill="#FFEA00" />
    </g>
    <path
      d="M47.1065 8.89379C45.2743 7.06152 40.9262 8.13637 35.5916 11.3083C33.2784 10.2543 30.7076 9.66644 28.0001 9.66644C17.8744 9.66644 9.66647 17.875 9.66647 28.0001C9.66647 30.7089 10.2537 33.2796 11.3083 35.5917C8.13577 40.9261 7.06155 45.2743 8.89256 47.1065C10.7261 48.9388 15.0742 47.8646 20.4075 44.692C22.7207 45.7454 25.2915 46.3339 28.0002 46.3339C38.1247 46.3339 46.3339 38.1259 46.3339 28.0002C46.3339 25.2927 45.7455 22.7219 44.6908 20.4093C47.8647 15.0747 48.9389 10.7261 47.1065 8.89379ZM17.8768 44.2038C13.5703 46.4803 10.8542 46.7097 10.0718 45.9285C9.28928 45.146 9.52006 42.43 11.7966 38.1221C11.9321 37.8646 12.0749 37.6033 12.2215 37.3409C13.4715 39.4466 15.1304 41.2825 17.0896 42.7352C17.0933 42.7328 17.0957 42.7328 17.0981 42.7304C17.6206 42.4545 18.154 42.1542 18.696 41.8319C17.8097 41.235 16.9809 40.5514 16.2143 39.786C14.6835 38.254 13.4812 36.4705 12.6425 34.4869C11.7733 32.4325 11.3326 30.2511 11.3326 28.0001C11.3326 25.7492 11.7733 23.5665 12.6425 21.5133C13.4811 19.5285 14.6835 17.7463 16.2143 16.2149C17.7462 14.6835 19.5285 13.4818 21.5133 12.6425C23.5665 11.774 25.7491 11.3333 28.0001 11.3333C30.2511 11.3333 32.4325 11.774 34.4869 12.6425C36.4706 13.4818 38.254 14.6836 39.7848 16.2149C40.5513 16.9809 41.2349 17.8104 41.8319 18.6966C42.1541 18.154 42.4544 17.6206 42.7303 17.0987C42.7315 17.0957 42.7327 17.0932 42.7351 17.0902C41.2813 15.131 39.4465 13.4721 37.3408 12.2221C37.6033 12.075 37.8645 11.9328 38.1221 11.7967C42.4287 9.52004 45.146 9.28996 45.9285 10.0718C46.7098 10.8543 46.4802 13.571 44.2037 17.8776C43.0342 20.0907 41.4669 22.479 39.5455 24.9766C37.5411 27.5828 35.2425 30.1866 32.7144 32.7146C30.1851 35.2427 27.5813 37.5413 24.9764 39.5469C22.4788 41.4671 20.0899 43.0345 17.8768 44.2038ZM43.3578 34.4869C42.518 36.4706 41.3168 38.254 39.7848 39.786C38.254 41.3168 36.4706 42.5179 34.487 43.3578C32.4326 44.2268 30.25 44.6663 28.0002 44.6663C25.9787 44.6663 24.0123 44.3099 22.1445 43.6068C25.8457 41.1897 29.9142 37.8707 33.8925 33.8924C37.8708 29.9141 41.1898 25.8449 43.608 22.1437C44.31 24.0114 44.6664 25.978 44.6664 28.0001C44.6664 30.2511 44.2257 32.4325 43.3578 34.4869Z"
      fill="#FFEA00" />
    <defs>
      <filter id="filter0_f_28_159" x="0" y="0.000488281" width="56" height="55.9995" filterUnits="userSpaceOnUse"
        color-interpolation-filters="sRGB">
        <feFlood flood-opacity="0" result="BackgroundImageFix" />
        <feBlend mode="normal" in="SourceGraphic" in2="BackgroundImageFix" result="shape" />
        <feGaussianBlur stdDeviation="4" result="effect1_foregroundBlur_28_159" />
      </filter>
    </defs>
  </symbol>
  <symbol id="laces" viewBox="0 0 54 54" fill="none">
    <g filter="url(#filter0_f_28_208)">
      <path
        d="M20.9938 8.20825C20.9487 8.16466 20.898 8.12721 20.843 8.09689C20.83 8.08917 20.8174 8.08226 20.8024 8.07535C20.7477 8.0474 20.6897 8.02676 20.6296 8.01398C20.626 8.01398 20.6223 8.01398 20.6183 8.01398C20.5757 8.00571 20.5324 8.00136 20.489 8.00098H13.0967C13.0527 8.00129 13.0089 8.00578 12.9658 8.01439H12.956C12.8958 8.02718 12.8376 8.04795 12.7829 8.07616C12.7699 8.08267 12.7573 8.08958 12.7443 8.09689C12.6894 8.1275 12.6387 8.16506 12.5935 8.20866L8.20825 12.5939C8.07485 12.7272 7.99985 12.9081 7.99976 13.0967V39.5472C8.00098 40.1932 8.21741 40.8204 8.61485 41.3296C9.01229 41.8389 9.56809 42.2012 10.1944 42.3593V45.2887C10.1944 45.4774 10.2694 45.6583 10.4027 45.7916C10.5361 45.925 10.717 46 10.9057 46C11.0943 46 11.2752 45.925 11.4086 45.7916C11.542 45.6583 11.6169 45.4774 11.6169 45.2887V42.3593C12.2432 42.2012 12.799 41.8389 13.1965 41.3296C13.5939 40.8204 13.8103 40.1932 13.8116 39.5472V13.8079H19.7794V39.5472C19.7805 40.193 19.9967 40.8199 20.3937 41.3291C20.7908 41.8383 21.3461 42.2008 21.972 42.3593V45.2887C21.972 45.4774 22.047 45.6583 22.1804 45.7916C22.3137 45.925 22.4946 46 22.6833 46C22.8719 46 23.0528 45.925 23.1862 45.7916C23.3196 45.6583 23.3945 45.4774 23.3945 45.2887V42.3593C24.0208 42.2011 24.5766 41.8388 24.974 41.3296C25.3714 40.8203 25.5879 40.1932 25.5892 39.5472V13.0967C25.5891 12.9081 25.5141 12.7272 25.3807 12.5939L20.9938 8.20825ZM12.3854 39.5472C12.379 39.9359 12.2201 40.3065 11.9429 40.5791C11.6658 40.8517 11.2926 41.0045 10.9038 41.0045C10.5151 41.0045 10.1419 40.8517 9.86474 40.5791C9.58759 40.3065 9.42866 39.9359 9.42222 39.5472V13.3913L12.3854 10.4281V39.5472ZM13.8079 12.3854V9.42222H19.7794V12.3854H13.8079ZM24.1651 39.5472C24.1586 39.9359 23.9997 40.3065 23.7226 40.5791C23.4454 40.8517 23.0722 41.0045 22.6835 41.0045C22.2947 41.0045 21.9216 40.8517 21.6444 40.5791C21.3672 40.3065 21.2083 39.9359 21.2019 39.5472V10.4281L24.1651 13.3913V39.5472Z"
        fill="#FFEA00" />
      <path
        d="M45.7914 12.5939L41.4061 8.20825C41.3611 8.16466 41.3106 8.12722 41.2558 8.09689C41.2424 8.08917 41.2298 8.08226 41.2151 8.07535C41.1606 8.04746 41.1027 8.02683 41.0428 8.01398H41.031C40.9884 8.00571 40.9452 8.00136 40.9018 8.00098H33.509C33.4651 8.00131 33.4212 8.0058 33.3781 8.01439H33.3688C33.3085 8.02714 33.2501 8.04792 33.1953 8.07616C33.1823 8.08267 33.1697 8.08958 33.1571 8.09689C33.102 8.12739 33.0512 8.16496 33.0059 8.20866L28.6206 12.5939C28.4872 12.7272 28.4122 12.9081 28.4121 13.0967V39.5472C28.4133 40.1932 28.6298 40.8204 29.0272 41.3296C29.4246 41.8389 29.9804 42.2012 30.6068 42.3593V45.2887C30.6068 45.4774 30.6817 45.6583 30.8151 45.7916C30.9485 45.925 31.1294 46 31.318 46C31.5066 46 31.6875 45.925 31.8209 45.7916C31.9543 45.6583 32.0292 45.4774 32.0292 45.2887V42.3593C32.6556 42.2012 33.2114 41.8389 33.6088 41.3296C34.0063 40.8204 34.2227 40.1932 34.2239 39.5472V13.8079H40.1918V39.5472C40.1929 40.193 40.409 40.8199 40.8061 41.3291C41.2031 41.8383 41.7584 42.2008 42.3844 42.3593V45.2887C42.3844 45.4774 42.4593 45.6583 42.5927 45.7916C42.7261 45.925 42.907 46 43.0956 46C43.2843 46 43.4652 45.925 43.5985 45.7916C43.7319 45.6583 43.8069 45.4774 43.8069 45.2887V42.3593C44.4332 42.2012 44.989 41.8389 45.3864 41.3296C45.7839 40.8204 46.0003 40.1932 46.0015 39.5472V13.0967C46.0013 13.0032 45.9826 12.9106 45.9465 12.8244C45.9105 12.7381 45.8578 12.6598 45.7914 12.5939ZM32.7978 39.5472C32.7913 39.9359 32.6324 40.3065 32.3553 40.5791C32.0781 40.8517 31.7049 41.0045 31.3162 41.0045C30.9274 41.0045 30.5543 40.8517 30.2771 40.5791C29.9999 40.3065 29.841 39.9359 29.8346 39.5472V13.3913L32.7978 10.4281V39.5472ZM34.2202 12.3854V9.42222H40.1918V12.3854H34.2202ZM44.5774 39.5472C44.571 39.9359 44.4121 40.3065 44.1349 40.5791C43.8578 40.8517 43.4846 41.0045 43.0958 41.0045C42.7071 41.0045 42.3339 40.8517 42.0568 40.5791C41.7796 40.3065 41.6207 39.9359 41.6142 39.5472V10.4281L44.5774 13.3913V39.5472Z"
        fill="#FFEA00" />
    </g>
    <path
      d="M20.9938 8.20825C20.9487 8.16466 20.898 8.12721 20.843 8.09689C20.83 8.08917 20.8174 8.08226 20.8024 8.07535C20.7477 8.0474 20.6897 8.02676 20.6296 8.01398C20.626 8.01398 20.6223 8.01398 20.6183 8.01398C20.5757 8.00571 20.5324 8.00136 20.489 8.00098H13.0967C13.0527 8.00129 13.0089 8.00578 12.9658 8.01439H12.956C12.8958 8.02718 12.8376 8.04795 12.7829 8.07616C12.7699 8.08267 12.7573 8.08958 12.7443 8.09689C12.6894 8.1275 12.6387 8.16506 12.5935 8.20866L8.20825 12.5939C8.07485 12.7272 7.99985 12.9081 7.99976 13.0967V39.5472C8.00098 40.1932 8.21741 40.8204 8.61485 41.3296C9.01229 41.8389 9.56809 42.2012 10.1944 42.3593V45.2887C10.1944 45.4774 10.2694 45.6583 10.4027 45.7916C10.5361 45.925 10.717 46 10.9057 46C11.0943 46 11.2752 45.925 11.4086 45.7916C11.542 45.6583 11.6169 45.4774 11.6169 45.2887V42.3593C12.2432 42.2012 12.799 41.8389 13.1965 41.3296C13.5939 40.8204 13.8103 40.1932 13.8116 39.5472V13.8079H19.7794V39.5472C19.7805 40.193 19.9967 40.8199 20.3937 41.3291C20.7908 41.8383 21.3461 42.2008 21.972 42.3593V45.2887C21.972 45.4774 22.047 45.6583 22.1804 45.7916C22.3137 45.925 22.4946 46 22.6833 46C22.8719 46 23.0528 45.925 23.1862 45.7916C23.3196 45.6583 23.3945 45.4774 23.3945 45.2887V42.3593C24.0208 42.2011 24.5766 41.8388 24.974 41.3296C25.3714 40.8203 25.5879 40.1932 25.5892 39.5472V13.0967C25.5891 12.9081 25.5141 12.7272 25.3807 12.5939L20.9938 8.20825ZM12.3854 39.5472C12.379 39.9359 12.2201 40.3065 11.9429 40.5791C11.6658 40.8517 11.2926 41.0045 10.9038 41.0045C10.5151 41.0045 10.1419 40.8517 9.86474 40.5791C9.58759 40.3065 9.42866 39.9359 9.42222 39.5472V13.3913L12.3854 10.4281V39.5472ZM13.8079 12.3854V9.42222H19.7794V12.3854H13.8079ZM24.1651 39.5472C24.1586 39.9359 23.9997 40.3065 23.7226 40.5791C23.4454 40.8517 23.0722 41.0045 22.6835 41.0045C22.2947 41.0045 21.9216 40.8517 21.6444 40.5791C21.3672 40.3065 21.2083 39.9359 21.2019 39.5472V10.4281L24.1651 13.3913V39.5472Z"
      fill="#FFEA00" />
    <path
      d="M45.7914 12.5939L41.4061 8.20825C41.3611 8.16466 41.3106 8.12722 41.2558 8.09689C41.2424 8.08917 41.2298 8.08226 41.2151 8.07535C41.1606 8.04746 41.1027 8.02683 41.0428 8.01398H41.031C40.9884 8.00571 40.9452 8.00136 40.9018 8.00098H33.509C33.4651 8.00131 33.4212 8.0058 33.3781 8.01439H33.3688C33.3085 8.02714 33.2501 8.04792 33.1953 8.07616C33.1823 8.08267 33.1697 8.08958 33.1571 8.09689C33.102 8.12739 33.0512 8.16496 33.0059 8.20866L28.6206 12.5939C28.4872 12.7272 28.4122 12.9081 28.4121 13.0967V39.5472C28.4133 40.1932 28.6298 40.8204 29.0272 41.3296C29.4246 41.8389 29.9804 42.2012 30.6068 42.3593V45.2887C30.6068 45.4774 30.6817 45.6583 30.8151 45.7916C30.9485 45.925 31.1294 46 31.318 46C31.5066 46 31.6875 45.925 31.8209 45.7916C31.9543 45.6583 32.0292 45.4774 32.0292 45.2887V42.3593C32.6556 42.2012 33.2114 41.8389 33.6088 41.3296C34.0063 40.8204 34.2227 40.1932 34.2239 39.5472V13.8079H40.1918V39.5472C40.1929 40.193 40.409 40.8199 40.8061 41.3291C41.2031 41.8383 41.7584 42.2008 42.3844 42.3593V45.2887C42.3844 45.4774 42.4593 45.6583 42.5927 45.7916C42.7261 45.925 42.907 46 43.0956 46C43.2843 46 43.4652 45.925 43.5985 45.7916C43.7319 45.6583 43.8069 45.4774 43.8069 45.2887V42.3593C44.4332 42.2012 44.989 41.8389 45.3864 41.3296C45.7839 40.8204 46.0003 40.1932 46.0015 39.5472V13.0967C46.0013 13.0032 45.9826 12.9106 45.9465 12.8244C45.9105 12.7381 45.8578 12.6598 45.7914 12.5939ZM32.7978 39.5472C32.7913 39.9359 32.6324 40.3065 32.3553 40.5791C32.0781 40.8517 31.7049 41.0045 31.3162 41.0045C30.9274 41.0045 30.5543 40.8517 30.2771 40.5791C29.9999 40.3065 29.841 39.9359 29.8346 39.5472V13.3913L32.7978 10.4281V39.5472ZM34.2202 12.3854V9.42222H40.1918V12.3854H34.2202ZM44.5774 39.5472C44.571 39.9359 44.4121 40.3065 44.1349 40.5791C43.8578 40.8517 43.4846 41.0045 43.0958 41.0045C42.7071 41.0045 42.3339 40.8517 42.0568 40.5791C41.7796 40.3065 41.6207 39.9359 41.6142 39.5472V10.4281L44.5774 13.3913V39.5472Z"
      fill="#FFEA00" />
    <defs>
      <filter id="filter0_f_28_208" x="-0.000244141" y="0.000976562" width="54.0017" height="53.999"
        filterUnits="userSpaceOnUse" color-interpolation-filters="sRGB">
        <feFlood flood-opacity="0" result="BackgroundImageFix" />
        <feBlend mode="normal" in="SourceGraphic" in2="BackgroundImageFix" result="shape" />
        <feGaussianBlur stdDeviation="4" result="effect1_foregroundBlur_28_208" />
      </filter>
    </defs>
  </symbol>
  <symbol id="block" viewBox="0 0 56 56" fill="none">
    <g filter="url(#filter0_f_28_216)">
      <path
        d="M44.4812 16.6589C43.5556 15.322 42.4729 14.101 41.2562 13.0222C41.2302 12.999 41.2021 12.9783 41.1762 12.9554C40.7807 12.6081 40.3681 12.2813 39.9464 11.9657C39.4203 11.5721 38.8798 11.1967 38.3168 10.8561C30.4413 6.12754 20.3575 7.36744 13.862 13.8633C7.36645 20.3591 6.12716 30.4428 10.8564 38.3184C12.5485 41.1107 14.8904 43.4525 17.683 45.1444C25.5585 49.8733 35.6426 48.6334 42.1381 42.1376C48.6336 35.6414 49.8729 25.5577 45.1434 17.6822C44.9332 17.3343 44.7122 16.9934 44.4812 16.6589ZM17.9366 43.7211C17.8384 43.6576 17.7392 43.5954 17.6421 43.5304C17.5179 43.447 17.394 43.3637 17.272 43.2777C17.0931 43.1513 16.9177 43.0204 16.7434 42.888C16.6314 42.8031 16.5182 42.7195 16.4083 42.6319C16.2197 42.4821 16.0363 42.3262 15.8538 42.1693C15.7638 42.0918 15.6713 42.0173 15.5828 41.9383C15.3238 41.707 15.0708 41.4686 14.8242 41.2239L14.7769 41.1766C14.5324 40.9309 14.2947 40.6788 14.064 40.4198C13.9801 40.3258 13.9007 40.2278 13.8187 40.132C13.6676 39.9559 13.5168 39.7786 13.3722 39.5973C13.28 39.4817 13.1921 39.363 13.103 39.2452C12.9752 39.0764 12.8485 38.907 12.7262 38.7343C12.637 38.608 12.5507 38.4795 12.4646 38.351C12.4011 38.2564 12.3404 38.16 12.2788 38.0642L38.0632 12.2795C38.1614 12.3426 38.2606 12.4049 38.3577 12.4702C38.4819 12.5532 38.6058 12.6368 38.7278 12.7229C38.9067 12.8489 39.0821 12.9801 39.2564 13.1123C39.3684 13.1974 39.4816 13.281 39.5915 13.3686C39.7801 13.5184 39.9635 13.6744 40.146 13.8312C40.236 13.9084 40.3284 13.9832 40.4169 14.0623C40.676 14.2936 40.929 14.5316 41.1756 14.7767L41.2229 14.824C41.4673 15.0696 41.7051 15.3217 41.9358 15.5808C42.0197 15.6748 42.099 15.7727 42.1811 15.8686C42.3322 16.0446 42.4829 16.2216 42.6276 16.4032C42.7198 16.5189 42.8076 16.6376 42.8968 16.7554C43.0246 16.9238 43.1513 17.0932 43.2736 17.2662C43.3627 17.3929 43.4491 17.521 43.5352 17.6495C43.5986 17.7441 43.6594 17.8406 43.721 17.9364L17.9366 43.7211ZM27.9999 9.33395C31.0995 9.33456 34.1506 10.1066 36.8773 11.5806L11.5796 36.8777C8.45225 31.0932 8.59904 24.0901 11.9663 18.4417C15.3335 12.7937 21.4241 9.33395 27.9999 9.33395ZM27.9999 46.6666C24.9003 46.6657 21.8492 45.8936 19.1225 44.4199L44.4202 19.1229C47.5475 24.9071 47.4008 31.9104 44.0335 37.5585C40.6663 43.2069 34.5757 46.6666 27.9999 46.6666Z"
        fill="#FFEA00" />
    </g>
    <path
      d="M44.4812 16.6589C43.5556 15.322 42.4729 14.101 41.2562 13.0222C41.2302 12.999 41.2021 12.9783 41.1762 12.9554C40.7807 12.6081 40.3681 12.2813 39.9464 11.9657C39.4203 11.5721 38.8798 11.1967 38.3168 10.8561C30.4413 6.12754 20.3575 7.36744 13.862 13.8633C7.36645 20.3591 6.12716 30.4428 10.8564 38.3184C12.5485 41.1107 14.8904 43.4525 17.683 45.1444C25.5585 49.8733 35.6426 48.6334 42.1381 42.1376C48.6336 35.6414 49.8729 25.5577 45.1434 17.6822C44.9332 17.3343 44.7122 16.9934 44.4812 16.6589ZM17.9366 43.7211C17.8384 43.6576 17.7392 43.5954 17.6421 43.5304C17.5179 43.447 17.394 43.3637 17.272 43.2777C17.0931 43.1513 16.9177 43.0204 16.7434 42.888C16.6314 42.8031 16.5182 42.7195 16.4083 42.6319C16.2197 42.4821 16.0363 42.3262 15.8538 42.1693C15.7638 42.0918 15.6713 42.0173 15.5828 41.9383C15.3238 41.707 15.0708 41.4686 14.8242 41.2239L14.7769 41.1766C14.5324 40.9309 14.2947 40.6788 14.064 40.4198C13.9801 40.3258 13.9007 40.2278 13.8187 40.132C13.6676 39.9559 13.5168 39.7786 13.3722 39.5973C13.28 39.4817 13.1921 39.363 13.103 39.2452C12.9752 39.0764 12.8485 38.907 12.7262 38.7343C12.637 38.608 12.5507 38.4795 12.4646 38.351C12.4011 38.2564 12.3404 38.16 12.2788 38.0642L38.0632 12.2795C38.1614 12.3426 38.2606 12.4049 38.3577 12.4702C38.4819 12.5532 38.6058 12.6368 38.7278 12.7229C38.9067 12.8489 39.0821 12.9801 39.2564 13.1123C39.3684 13.1974 39.4816 13.281 39.5915 13.3686C39.7801 13.5184 39.9635 13.6744 40.146 13.8312C40.236 13.9084 40.3284 13.9832 40.4169 14.0623C40.676 14.2936 40.929 14.5316 41.1756 14.7767L41.2229 14.824C41.4673 15.0696 41.7051 15.3217 41.9358 15.5808C42.0197 15.6748 42.099 15.7727 42.1811 15.8686C42.3322 16.0446 42.4829 16.2216 42.6276 16.4032C42.7198 16.5189 42.8076 16.6376 42.8968 16.7554C43.0246 16.9238 43.1513 17.0932 43.2736 17.2662C43.3627 17.3929 43.4491 17.521 43.5352 17.6495C43.5986 17.7441 43.6594 17.8406 43.721 17.9364L17.9366 43.7211ZM27.9999 9.33395C31.0995 9.33456 34.1506 10.1066 36.8773 11.5806L11.5796 36.8777C8.45225 31.0932 8.59904 24.0901 11.9663 18.4417C15.3335 12.7937 21.4241 9.33395 27.9999 9.33395ZM27.9999 46.6666C24.9003 46.6657 21.8492 45.8936 19.1225 44.4199L44.4202 19.1229C47.5475 24.9071 47.4008 31.9104 44.0335 37.5585C40.6663 43.2069 34.5757 46.6666 27.9999 46.6666Z"
      fill="#FFEA00" />
    <defs>
      <filter id="filter0_f_28_216" x="0" y="0.000488281" width="56" height="55.9998" filterUnits="userSpaceOnUse"
        color-interpolation-filters="sRGB">
        <feFlood flood-opacity="0" result="BackgroundImageFix" />
        <feBlend mode="normal" in="SourceGraphic" in2="BackgroundImageFix" result="shape" />
        <feGaussianBlur stdDeviation="4" result="effect1_foregroundBlur_28_216" />
      </filter>
    </defs>
  </symbol>
  <symbol id="bulb" viewBox="0 0 56 56" fill="none">
    <g filter="url(#filter0_f_37_205)">
      <path
        d="M33.4545 16.7487V8.90912C33.4545 8.40662 33.0479 8 32.5454 8H23.4545C22.952 8 22.5454 8.40662 22.5454 8.90912V16.7487C19.2901 18.6384 17.0908 22.1543 17.0908 26.1818C17.0908 32.1973 21.9843 37.0908 27.9999 37.0908C34.0155 37.0908 38.909 32.1973 38.909 26.1818C38.9091 22.1543 36.7098 18.6384 33.4545 16.7487ZM24.3635 9.81815H31.6363V15.9091C30.4969 15.5045 29.2764 15.2727 27.9999 15.2727C26.7234 15.2727 25.5029 15.5045 24.3635 15.9091V9.81815ZM28 35.2727C22.9875 35.2727 18.9091 31.1942 18.9091 26.1818C18.9091 21.1693 22.9875 17.0908 28 17.0908C33.0124 17.0908 37.0909 21.1693 37.0909 26.1818C37.0909 31.1942 33.0124 35.2727 28 35.2727Z"
        fill="#FFEA00" />
      <path
        d="M43.1882 10.9934C42.8331 10.6383 42.2578 10.6383 41.9027 10.9934L38.2664 14.6298C37.9112 14.9849 37.9112 15.5602 38.2664 15.9153C38.4438 16.0928 38.6765 16.1816 38.9091 16.1816C39.1416 16.1816 39.3742 16.0928 39.5518 15.9153L43.1882 12.2789C43.5434 11.9237 43.5434 11.3485 43.1882 10.9934Z"
        fill="#FFEA00" />
      <path
        d="M17.7336 14.6298L14.0972 10.9934C13.7421 10.6383 13.1668 10.6383 12.8118 10.9934C12.4566 11.3485 12.4566 11.9238 12.8118 12.2789L16.4481 15.9153C16.6256 16.0928 16.8583 16.1816 17.0909 16.1816C17.3234 16.1816 17.556 16.0928 17.7336 15.9153C18.0888 15.5601 18.0888 14.9848 17.7336 14.6298Z"
        fill="#FFEA00" />
      <path
        d="M43.1883 40.0844L39.5518 36.448C39.1967 36.0929 38.6214 36.0929 38.2664 36.448C37.9112 36.8031 37.9112 37.3784 38.2664 37.7335L41.9027 41.3699C42.0803 41.5474 42.3129 41.6362 42.5455 41.6362C42.7781 41.6362 43.0107 41.5474 43.1883 41.3699C43.5435 41.0147 43.5435 40.4394 43.1883 40.0844Z"
        fill="#FFEA00" />
      <path
        d="M17.7337 36.448C17.3786 36.0929 16.8033 36.0929 16.4482 36.448L12.8118 40.0844C12.4566 40.4395 12.4566 41.0148 12.8118 41.3699C12.9893 41.5474 13.222 41.6362 13.4545 41.6362C13.6871 41.6362 13.9197 41.5474 14.0973 41.3699L17.7337 37.7335C18.0889 37.3783 18.0889 36.8031 17.7337 36.448Z"
        fill="#FFEA00" />
      <path
        d="M12.5454 26.1816H8.90912C8.40662 26.1816 8 26.5883 8 27.0908C8 27.5933 8.40662 27.9999 8.90912 27.9999H12.5455C13.0479 27.9999 13.4545 27.5933 13.4545 27.0908C13.4545 26.5883 13.0479 26.1816 12.5454 26.1816Z"
        fill="#FFEA00" />
      <path
        d="M47.0909 26.1816H43.4545C42.952 26.1816 42.5454 26.5883 42.5454 27.0908C42.5454 27.5933 42.952 27.9999 43.4545 27.9999H47.0909C47.5934 27.9999 48 27.5933 48 27.0908C47.9999 26.5883 47.5934 26.1816 47.0909 26.1816Z"
        fill="#FFEA00" />
      <path
        d="M27.9999 40.7271C27.4974 40.7271 27.0908 41.1337 27.0908 41.6362V47.0907C27.0908 47.5932 27.4974 47.9998 27.9999 47.9998C28.5024 47.9998 28.9091 47.5932 28.9091 47.0907V41.6362C28.909 41.1337 28.5024 40.7271 27.9999 40.7271Z"
        fill="#FFEA00" />
    </g>
    <path
      d="M33.4545 16.7487V8.90912C33.4545 8.40662 33.0479 8 32.5454 8H23.4545C22.952 8 22.5454 8.40662 22.5454 8.90912V16.7487C19.2901 18.6384 17.0908 22.1543 17.0908 26.1818C17.0908 32.1973 21.9843 37.0908 27.9999 37.0908C34.0155 37.0908 38.909 32.1973 38.909 26.1818C38.9091 22.1543 36.7098 18.6384 33.4545 16.7487ZM24.3635 9.81815H31.6363V15.9091C30.4969 15.5045 29.2764 15.2727 27.9999 15.2727C26.7234 15.2727 25.5029 15.5045 24.3635 15.9091V9.81815ZM28 35.2727C22.9875 35.2727 18.9091 31.1942 18.9091 26.1818C18.9091 21.1693 22.9875 17.0908 28 17.0908C33.0124 17.0908 37.0909 21.1693 37.0909 26.1818C37.0909 31.1942 33.0124 35.2727 28 35.2727Z"
      fill="#FFEA00" />
    <path
      d="M43.1882 10.9934C42.8331 10.6383 42.2578 10.6383 41.9027 10.9934L38.2664 14.6298C37.9112 14.9849 37.9112 15.5602 38.2664 15.9153C38.4438 16.0928 38.6765 16.1816 38.9091 16.1816C39.1416 16.1816 39.3742 16.0928 39.5518 15.9153L43.1882 12.2789C43.5434 11.9237 43.5434 11.3485 43.1882 10.9934Z"
      fill="#FFEA00" />
    <path
      d="M17.7336 14.6298L14.0972 10.9934C13.7421 10.6383 13.1668 10.6383 12.8118 10.9934C12.4566 11.3485 12.4566 11.9238 12.8118 12.2789L16.4481 15.9153C16.6256 16.0928 16.8583 16.1816 17.0909 16.1816C17.3234 16.1816 17.556 16.0928 17.7336 15.9153C18.0888 15.5601 18.0888 14.9848 17.7336 14.6298Z"
      fill="#FFEA00" />
    <path
      d="M43.1883 40.0844L39.5518 36.448C39.1967 36.0929 38.6214 36.0929 38.2664 36.448C37.9112 36.8031 37.9112 37.3784 38.2664 37.7335L41.9027 41.3699C42.0803 41.5474 42.3129 41.6362 42.5455 41.6362C42.7781 41.6362 43.0107 41.5474 43.1883 41.3699C43.5435 41.0147 43.5435 40.4394 43.1883 40.0844Z"
      fill="#FFEA00" />
    <path
      d="M17.7337 36.448C17.3786 36.0929 16.8033 36.0929 16.4482 36.448L12.8118 40.0844C12.4566 40.4395 12.4566 41.0148 12.8118 41.3699C12.9893 41.5474 13.222 41.6362 13.4545 41.6362C13.6871 41.6362 13.9197 41.5474 14.0973 41.3699L17.7337 37.7335C18.0889 37.3783 18.0889 36.8031 17.7337 36.448Z"
      fill="#FFEA00" />
    <path
      d="M12.5454 26.1816H8.90912C8.40662 26.1816 8 26.5883 8 27.0908C8 27.5933 8.40662 27.9999 8.90912 27.9999H12.5455C13.0479 27.9999 13.4545 27.5933 13.4545 27.0908C13.4545 26.5883 13.0479 26.1816 12.5454 26.1816Z"
      fill="#FFEA00" />
    <path
      d="M47.0909 26.1816H43.4545C42.952 26.1816 42.5454 26.5883 42.5454 27.0908C42.5454 27.5933 42.952 27.9999 43.4545 27.9999H47.0909C47.5934 27.9999 48 27.5933 48 27.0908C47.9999 26.5883 47.5934 26.1816 47.0909 26.1816Z"
      fill="#FFEA00" />
    <path
      d="M27.9999 40.7271C27.4974 40.7271 27.0908 41.1337 27.0908 41.6362V47.0907C27.0908 47.5932 27.4974 47.9998 27.9999 47.9998C28.5024 47.9998 28.9091 47.5932 28.9091 47.0907V41.6362C28.909 41.1337 28.5024 40.7271 27.9999 40.7271Z"
      fill="#FFEA00" />
    <defs>
      <filter id="filter0_f_37_205" x="0" y="0" width="56" height="55.9998" filterUnits="userSpaceOnUse"
        color-interpolation-filters="sRGB">
        <feFlood flood-opacity="0" result="BackgroundImageFix" />
        <feBlend mode="normal" in="SourceGraphic" in2="BackgroundImageFix" result="shape" />
        <feGaussianBlur stdDeviation="4" result="effect1_foregroundBlur_37_205" />
      </filter>
    </defs>
  </symbol>
  <symbol id="sneakers" viewBox="0 0 56 40" fill="none">
    <g filter="url(#filter0_f_37_257)">
      <path
        d="M8.19247 26.1068L9.48957 23.143C9.04295 19.6885 9.78754 16.1286 11.723 12.5559C12.0575 11.938 12.8923 11.6898 13.5131 12.0224L14.0187 12.2907C15.6005 13.149 16.8118 13.3306 18.5123 12.9616C20.0483 12.6343 21.4004 11.5581 22.1295 10.083C22.4516 9.43128 23.3228 9.15245 23.955 9.50257C25.1414 10.1606 26.2566 10.9221 27.3922 11.7781C27.4056 11.7884 27.4221 11.7919 27.4348 11.8034C27.4401 11.8083 27.442 11.8151 27.4471 11.8201C28.2569 12.4325 29.0759 13.0857 29.9474 13.8134C32.1223 15.638 34.6525 16.9198 37.267 17.5207C38.5804 17.8272 39.9257 17.9619 41.3237 17.9203C41.771 17.9089 42.2256 17.8279 42.7067 17.742C43.3685 17.6238 44.0586 17.5016 44.7837 17.5559C46.0411 17.6541 47.4925 18.4249 47.9011 19.9274C48.0018 20.3018 48.0228 20.7023 47.9768 21.1079C47.9766 21.1111 47.9782 21.114 47.978 21.1172C47.8612 22.6255 47.6019 23.7661 47.1858 24.6032C45.5349 27.9328 41.9852 29.0354 38.7883 29.8074C36.4839 30.3683 34.1391 30.6497 31.7885 30.6497C30.8743 30.6497 29.9591 30.6071 29.0456 30.5219C27.8119 30.4123 26.5857 30.2011 25.4 29.9968C23.352 29.6438 21.4165 29.309 19.4111 29.4447C18.5938 29.5026 17.7597 29.6243 16.9529 29.742C16.3315 29.8327 15.7107 29.9232 15.0909 29.9883C13.2257 30.1922 11.7587 30.0865 10.4779 29.6548C9.75654 29.4183 9.18529 29.0695 8.62208 28.5213C7.99531 27.903 7.82353 26.9309 8.19247 26.1068ZM46.2745 22.0368C46.6275 21.4541 46.7544 20.7949 46.6149 20.2751C46.3781 19.4051 45.4459 18.9444 44.6817 18.8846C44.5939 18.8781 44.5057 18.8748 44.4182 18.8748C43.9429 18.8748 43.4561 18.9616 42.9411 19.0538C42.4323 19.1446 41.9059 19.2386 41.3606 19.2523C39.8767 19.2972 38.3898 19.1511 36.9665 18.8192C35.6652 18.52 34.3863 18.0584 33.1542 17.4623C32.6981 18.0291 32.1785 18.5729 31.598 19.0814C31.4714 19.1924 31.315 19.2467 31.1591 19.2467C30.9737 19.2467 30.7895 19.17 30.6577 19.0197C30.415 18.7428 30.443 18.3218 30.7196 18.0794C31.1726 17.6823 31.5685 17.2579 31.936 16.8233C31.2932 16.4532 30.6677 16.0435 30.0633 15.5971C29.4446 16.1461 28.7765 16.6438 28.0293 17.1026C27.9203 17.1693 27.7999 17.2013 27.6812 17.2013C27.4574 17.2013 27.2384 17.0884 27.1129 16.8837C26.9202 16.57 27.0182 16.1598 27.3318 15.9673C27.9396 15.594 28.4892 15.1948 28.9994 14.7595C28.3224 14.1952 27.6783 13.68 27.0455 13.1899C26.4332 13.7888 25.7388 14.3287 24.9659 14.7937C24.8582 14.8584 24.7398 14.889 24.623 14.889C24.3968 14.889 24.1763 14.7742 24.0513 14.5663C23.8617 14.2507 23.9635 13.8415 24.2787 13.6517C24.9016 13.2772 25.467 12.8501 25.9697 12.3797C25.0947 11.7473 24.2281 11.176 23.3242 10.6732C22.4161 12.5107 20.7211 13.8534 18.7925 14.2644C16.7913 14.6983 15.2358 14.4674 13.3839 13.4624L12.8949 13.1907C11.1074 16.49 10.4011 19.7581 10.7939 22.9107C11.4211 23.2712 12.2121 23.4703 13.1491 23.5028C13.9081 23.5298 14.6541 23.4497 15.4509 23.3674C15.7411 23.3375 16.0312 23.3072 16.3231 23.2822C19.2623 23.0352 22.4442 23.2913 26.1859 24.0838C27.1938 24.2976 28.1985 24.5598 29.17 24.8136C31.2155 25.3478 33.1477 25.8524 35.1746 25.9647C35.5406 25.9855 35.9082 25.9962 36.2755 25.9962C39.0361 25.9962 41.5458 25.41 43.736 24.2534C44.9003 23.642 45.7543 22.8963 46.2745 22.0368ZM9.55501 27.5692C9.96752 27.971 10.3677 28.216 10.8983 28.39C11.9941 28.759 13.2809 28.8468 14.9486 28.663C15.554 28.5995 16.1569 28.5114 16.7607 28.4232C17.5913 28.3019 18.4506 28.1766 19.3195 28.1151C21.4876 27.9706 23.591 28.3327 25.6266 28.6834C26.7855 28.8829 27.9841 29.0895 29.1664 29.1946C32.2844 29.4864 35.4162 29.2564 38.4744 28.512C41.2884 27.8325 44.1383 26.9628 45.6532 24.6014C45.2591 24.8975 44.8372 25.18 44.3566 25.4323C41.9742 26.6908 39.2553 27.3288 36.2754 27.3288C35.8831 27.3288 35.4904 27.3174 35.1 27.2953C32.9401 27.1756 30.8523 26.6303 28.8333 26.1029C27.8764 25.853 26.8871 25.5947 25.9097 25.3874C22.2978 24.6225 19.2369 24.3756 16.436 24.6099C16.153 24.6343 15.8706 24.6636 15.5882 24.6929C14.7836 24.7759 13.9553 24.8617 13.1042 24.8348C12.0985 24.7995 11.2154 24.5981 10.4646 24.2386L9.41087 26.6463C9.27032 26.9602 9.33216 27.3499 9.55501 27.5692Z"
        fill="#FFEA00" />
    </g>
    <path
      d="M8.19247 26.1068L9.48957 23.143C9.04295 19.6885 9.78754 16.1286 11.723 12.5559C12.0575 11.938 12.8923 11.6898 13.5131 12.0224L14.0187 12.2907C15.6005 13.149 16.8118 13.3306 18.5123 12.9616C20.0483 12.6343 21.4004 11.5581 22.1295 10.083C22.4516 9.43128 23.3228 9.15245 23.955 9.50257C25.1414 10.1606 26.2566 10.9221 27.3922 11.7781C27.4056 11.7884 27.4221 11.7919 27.4348 11.8034C27.4401 11.8083 27.442 11.8151 27.4471 11.8201C28.2569 12.4325 29.0759 13.0857 29.9474 13.8134C32.1223 15.638 34.6525 16.9198 37.267 17.5207C38.5804 17.8272 39.9257 17.9619 41.3237 17.9203C41.771 17.9089 42.2256 17.8279 42.7067 17.742C43.3685 17.6238 44.0586 17.5016 44.7837 17.5559C46.0411 17.6541 47.4925 18.4249 47.9011 19.9274C48.0018 20.3018 48.0228 20.7023 47.9768 21.1079C47.9766 21.1111 47.9782 21.114 47.978 21.1172C47.8612 22.6255 47.6019 23.7661 47.1858 24.6032C45.5349 27.9328 41.9852 29.0354 38.7883 29.8074C36.4839 30.3683 34.1391 30.6497 31.7885 30.6497C30.8743 30.6497 29.9591 30.6071 29.0456 30.5219C27.8119 30.4123 26.5857 30.2011 25.4 29.9968C23.352 29.6438 21.4165 29.309 19.4111 29.4447C18.5938 29.5026 17.7597 29.6243 16.9529 29.742C16.3315 29.8327 15.7107 29.9232 15.0909 29.9883C13.2257 30.1922 11.7587 30.0865 10.4779 29.6548C9.75654 29.4183 9.18529 29.0695 8.62208 28.5213C7.99531 27.903 7.82353 26.9309 8.19247 26.1068ZM46.2745 22.0368C46.6275 21.4541 46.7544 20.7949 46.6149 20.2751C46.3781 19.4051 45.4459 18.9444 44.6817 18.8846C44.5939 18.8781 44.5057 18.8748 44.4182 18.8748C43.9429 18.8748 43.4561 18.9616 42.9411 19.0538C42.4323 19.1446 41.9059 19.2386 41.3606 19.2523C39.8767 19.2972 38.3898 19.1511 36.9665 18.8192C35.6652 18.52 34.3863 18.0584 33.1542 17.4623C32.6981 18.0291 32.1785 18.5729 31.598 19.0814C31.4714 19.1924 31.315 19.2467 31.1591 19.2467C30.9737 19.2467 30.7895 19.17 30.6577 19.0197C30.415 18.7428 30.443 18.3218 30.7196 18.0794C31.1726 17.6823 31.5685 17.2579 31.936 16.8233C31.2932 16.4532 30.6677 16.0435 30.0633 15.5971C29.4446 16.1461 28.7765 16.6438 28.0293 17.1026C27.9203 17.1693 27.7999 17.2013 27.6812 17.2013C27.4574 17.2013 27.2384 17.0884 27.1129 16.8837C26.9202 16.57 27.0182 16.1598 27.3318 15.9673C27.9396 15.594 28.4892 15.1948 28.9994 14.7595C28.3224 14.1952 27.6783 13.68 27.0455 13.1899C26.4332 13.7888 25.7388 14.3287 24.9659 14.7937C24.8582 14.8584 24.7398 14.889 24.623 14.889C24.3968 14.889 24.1763 14.7742 24.0513 14.5663C23.8617 14.2507 23.9635 13.8415 24.2787 13.6517C24.9016 13.2772 25.467 12.8501 25.9697 12.3797C25.0947 11.7473 24.2281 11.176 23.3242 10.6732C22.4161 12.5107 20.7211 13.8534 18.7925 14.2644C16.7913 14.6983 15.2358 14.4674 13.3839 13.4624L12.8949 13.1907C11.1074 16.49 10.4011 19.7581 10.7939 22.9107C11.4211 23.2712 12.2121 23.4703 13.1491 23.5028C13.9081 23.5298 14.6541 23.4497 15.4509 23.3674C15.7411 23.3375 16.0312 23.3072 16.3231 23.2822C19.2623 23.0352 22.4442 23.2913 26.1859 24.0838C27.1938 24.2976 28.1985 24.5598 29.17 24.8136C31.2155 25.3478 33.1477 25.8524 35.1746 25.9647C35.5406 25.9855 35.9082 25.9962 36.2755 25.9962C39.0361 25.9962 41.5458 25.41 43.736 24.2534C44.9003 23.642 45.7543 22.8963 46.2745 22.0368ZM9.55501 27.5692C9.96752 27.971 10.3677 28.216 10.8983 28.39C11.9941 28.759 13.2809 28.8468 14.9486 28.663C15.554 28.5995 16.1569 28.5114 16.7607 28.4232C17.5913 28.3019 18.4506 28.1766 19.3195 28.1151C21.4876 27.9706 23.591 28.3327 25.6266 28.6834C26.7855 28.8829 27.9841 29.0895 29.1664 29.1946C32.2844 29.4864 35.4162 29.2564 38.4744 28.512C41.2884 27.8325 44.1383 26.9628 45.6532 24.6014C45.2591 24.8975 44.8372 25.18 44.3566 25.4323C41.9742 26.6908 39.2553 27.3288 36.2754 27.3288C35.8831 27.3288 35.4904 27.3174 35.1 27.2953C32.9401 27.1756 30.8523 26.6303 28.8333 26.1029C27.8764 25.853 26.8871 25.5947 25.9097 25.3874C22.2978 24.6225 19.2369 24.3756 16.436 24.6099C16.153 24.6343 15.8706 24.6636 15.5882 24.6929C14.7836 24.7759 13.9553 24.8617 13.1042 24.8348C12.0985 24.7995 11.2154 24.5981 10.4646 24.2386L9.41087 26.6463C9.27032 26.9602 9.33216 27.3499 9.55501 27.5692Z"
      fill="#FFEA00" />
    <defs>
      <filter id="filter0_f_37_257" x="0.000244141" y="1.35034" width="55.9998" height="37.2993"
        filterUnits="userSpaceOnUse" color-interpolation-filters="sRGB">
        <feFlood flood-opacity="0" result="BackgroundImageFix" />
        <feBlend mode="normal" in="SourceGraphic" in2="BackgroundImageFix" result="shape" />
        <feGaussianBlur stdDeviation="4" result="effect1_foregroundBlur_37_257" />
      </filter>
    </defs>
  </symbol>
  <symbol id="materials" viewBox="0 0 56 56" fill="none">
    <g filter="url(#filter0_f_37_265)">
      <path
        d="M47.9231 44.3548L46.7532 42.1272L47.9231 39.8996C48.0253 39.7053 48.0253 39.4732 47.9231 39.2788L46.7532 37.0559L47.9231 34.8335C48.0253 34.6392 48.0253 34.4067 47.9231 34.2125L46.7532 31.9904L47.9231 29.7675C48.0253 29.5732 48.0253 29.3407 47.9231 29.1464L46.7532 26.9237L47.9231 24.7011C48.0253 24.5068 48.0253 24.2743 47.9231 24.08L46.7532 21.8583L47.9231 19.6382C48.0592 19.379 48.011 19.0617 47.804 18.8553L45.1354 16.1945C44.9284 15.9881 44.612 15.9406 44.3548 16.0763L42.1269 17.2469L39.9999 16.1293V8.66664C39.9999 8.29844 39.7017 8 39.3333 8H8.66664C8.2982 8 8 8.29852 8 8.66664V39.3332C8 39.7014 8.2982 39.9999 8.66664 39.9999H16.1229L17.2467 42.134L16.0768 44.3541C15.9407 44.6125 15.9883 44.9289 16.1946 45.1356L18.8554 47.8039C18.9837 47.9325 19.1542 47.9998 19.3274 47.9998C19.4329 47.9998 19.5397 47.9748 19.6373 47.9234L21.8652 46.7528L24.0924 47.9234C24.2864 48.0255 24.5188 48.0252 24.7129 47.923L26.9361 46.7528L29.1588 47.923C29.3528 48.0252 29.5859 48.0252 29.7799 47.923L32.0019 46.7531L34.2246 47.923C34.4185 48.0252 34.6517 48.0252 34.8457 47.923L37.0683 46.7528L39.291 47.923C39.4849 48.0252 39.7181 48.0252 39.912 47.923L42.1334 46.7531L44.3541 47.923C44.6106 48.0591 44.9289 48.0116 45.1359 47.8045L47.8045 45.1363C48.011 44.9299 48.0591 44.6132 47.9231 44.3548ZM16.0769 24.7132L17.2468 26.9361L16.0769 29.1588C15.9747 29.3531 15.9747 29.5856 16.0769 29.7799L17.2468 32.0019L16.0769 34.2246C15.9747 34.4189 15.9747 34.6514 16.0769 34.8457L17.2468 37.0686L16.4057 38.6666H9.33336V9.33336H38.6667V16.399L37.056 17.2471L34.8333 16.0769C34.6393 15.9747 34.4062 15.9747 34.2122 16.0769L31.9902 17.2468L29.7675 16.0769C29.5736 15.9747 29.3404 15.9747 29.1464 16.0769L26.9238 17.2471L24.7011 16.0769C24.5072 15.9747 24.274 15.9747 24.08 16.0769L21.858 17.2468L19.6379 16.0769C19.3821 15.9408 19.0631 15.988 18.8561 16.1954L16.1953 18.8562C15.9889 19.0626 15.9408 19.3793 16.0768 19.6377L17.2467 21.8649L16.0768 24.0925C15.9746 24.2868 15.9746 24.5189 16.0769 24.7132ZM45.4101 27.2343L46.58 29.457L45.4101 31.68C45.3079 31.8743 45.3079 32.1068 45.4101 32.301L46.58 34.5231L45.4101 36.7454C45.3079 36.9397 45.3079 37.1722 45.4101 37.3665L46.58 39.5898L45.4101 41.817C45.3079 42.0113 45.3079 42.2431 45.4101 42.4374L46.5149 44.5406L44.5409 46.5146L42.4439 45.4098C42.2499 45.3076 42.0168 45.3076 41.8228 45.4098L39.6015 46.5797L37.3788 45.4098C37.1849 45.3076 36.9517 45.3076 36.7578 45.4098L34.5351 46.58L32.3125 45.4098C32.1185 45.3076 31.8853 45.3076 31.6914 45.4098L29.4693 46.5797L27.2467 45.4098C27.0527 45.3076 26.8196 45.3076 26.6256 45.4098L24.4023 46.58L22.1751 45.4095C22.0781 45.3584 21.972 45.333 21.8652 45.333C21.7584 45.333 21.6523 45.3584 21.5553 45.4095L19.4524 46.5146L17.485 44.5416L18.5898 42.445C18.692 42.2503 18.692 42.0179 18.5898 41.8236L17.4199 39.6019L18.5898 37.3792C18.692 37.1849 18.692 36.9524 18.5898 36.7581L17.4199 34.5352L18.5898 32.3125C18.692 32.1182 18.692 31.8857 18.5898 31.6914L17.4199 29.4694L18.5898 27.2468C18.692 27.0525 18.692 26.82 18.5898 26.6257L17.4199 24.4024L18.5898 22.1752C18.692 21.9809 18.692 21.7491 18.5898 21.5547L17.485 19.4519L19.4511 17.4857L21.5475 18.5902C21.7415 18.6924 21.9746 18.6924 22.1686 18.5902L24.3906 17.4203L26.6132 18.5902C26.8072 18.6924 27.0404 18.6924 27.2343 18.5902L29.457 17.42L31.6796 18.5902C31.8736 18.6924 32.1068 18.6924 32.3007 18.5902L34.5228 17.4203L36.7454 18.5902C36.9394 18.6924 37.1725 18.6924 37.3665 18.5902L39.5892 17.42L41.817 18.5905C42.011 18.6927 42.2428 18.6927 42.4368 18.5905L44.5409 17.4847L46.5142 19.4522L45.4101 21.5476C45.3079 21.7422 45.3079 21.9747 45.4101 22.169L46.58 24.3907L45.4101 26.6133C45.3079 26.8075 45.3079 27.04 45.4101 27.2343Z"
        fill="#FFEA00" />
    </g>
    <path
      d="M47.9231 44.3548L46.7532 42.1272L47.9231 39.8996C48.0253 39.7053 48.0253 39.4732 47.9231 39.2788L46.7532 37.0559L47.9231 34.8335C48.0253 34.6392 48.0253 34.4067 47.9231 34.2125L46.7532 31.9904L47.9231 29.7675C48.0253 29.5732 48.0253 29.3407 47.9231 29.1464L46.7532 26.9237L47.9231 24.7011C48.0253 24.5068 48.0253 24.2743 47.9231 24.08L46.7532 21.8583L47.9231 19.6382C48.0592 19.379 48.011 19.0617 47.804 18.8553L45.1354 16.1945C44.9284 15.9881 44.612 15.9406 44.3548 16.0763L42.1269 17.2469L39.9999 16.1293V8.66664C39.9999 8.29844 39.7017 8 39.3333 8H8.66664C8.2982 8 8 8.29852 8 8.66664V39.3332C8 39.7014 8.2982 39.9999 8.66664 39.9999H16.1229L17.2467 42.134L16.0768 44.3541C15.9407 44.6125 15.9883 44.9289 16.1946 45.1356L18.8554 47.8039C18.9837 47.9325 19.1542 47.9998 19.3274 47.9998C19.4329 47.9998 19.5397 47.9748 19.6373 47.9234L21.8652 46.7528L24.0924 47.9234C24.2864 48.0255 24.5188 48.0252 24.7129 47.923L26.9361 46.7528L29.1588 47.923C29.3528 48.0252 29.5859 48.0252 29.7799 47.923L32.0019 46.7531L34.2246 47.923C34.4185 48.0252 34.6517 48.0252 34.8457 47.923L37.0683 46.7528L39.291 47.923C39.4849 48.0252 39.7181 48.0252 39.912 47.923L42.1334 46.7531L44.3541 47.923C44.6106 48.0591 44.9289 48.0116 45.1359 47.8045L47.8045 45.1363C48.011 44.9299 48.0591 44.6132 47.9231 44.3548ZM16.0769 24.7132L17.2468 26.9361L16.0769 29.1588C15.9747 29.3531 15.9747 29.5856 16.0769 29.7799L17.2468 32.0019L16.0769 34.2246C15.9747 34.4189 15.9747 34.6514 16.0769 34.8457L17.2468 37.0686L16.4057 38.6666H9.33336V9.33336H38.6667V16.399L37.056 17.2471L34.8333 16.0769C34.6393 15.9747 34.4062 15.9747 34.2122 16.0769L31.9902 17.2468L29.7675 16.0769C29.5736 15.9747 29.3404 15.9747 29.1464 16.0769L26.9238 17.2471L24.7011 16.0769C24.5072 15.9747 24.274 15.9747 24.08 16.0769L21.858 17.2468L19.6379 16.0769C19.3821 15.9408 19.0631 15.988 18.8561 16.1954L16.1953 18.8562C15.9889 19.0626 15.9408 19.3793 16.0768 19.6377L17.2467 21.8649L16.0768 24.0925C15.9746 24.2868 15.9746 24.5189 16.0769 24.7132ZM45.4101 27.2343L46.58 29.457L45.4101 31.68C45.3079 31.8743 45.3079 32.1068 45.4101 32.301L46.58 34.5231L45.4101 36.7454C45.3079 36.9397 45.3079 37.1722 45.4101 37.3665L46.58 39.5898L45.4101 41.817C45.3079 42.0113 45.3079 42.2431 45.4101 42.4374L46.5149 44.5406L44.5409 46.5146L42.4439 45.4098C42.2499 45.3076 42.0168 45.3076 41.8228 45.4098L39.6015 46.5797L37.3788 45.4098C37.1849 45.3076 36.9517 45.3076 36.7578 45.4098L34.5351 46.58L32.3125 45.4098C32.1185 45.3076 31.8853 45.3076 31.6914 45.4098L29.4693 46.5797L27.2467 45.4098C27.0527 45.3076 26.8196 45.3076 26.6256 45.4098L24.4023 46.58L22.1751 45.4095C22.0781 45.3584 21.972 45.333 21.8652 45.333C21.7584 45.333 21.6523 45.3584 21.5553 45.4095L19.4524 46.5146L17.485 44.5416L18.5898 42.445C18.692 42.2503 18.692 42.0179 18.5898 41.8236L17.4199 39.6019L18.5898 37.3792C18.692 37.1849 18.692 36.9524 18.5898 36.7581L17.4199 34.5352L18.5898 32.3125C18.692 32.1182 18.692 31.8857 18.5898 31.6914L17.4199 29.4694L18.5898 27.2468C18.692 27.0525 18.692 26.82 18.5898 26.6257L17.4199 24.4024L18.5898 22.1752C18.692 21.9809 18.692 21.7491 18.5898 21.5547L17.485 19.4519L19.4511 17.4857L21.5475 18.5902C21.7415 18.6924 21.9746 18.6924 22.1686 18.5902L24.3906 17.4203L26.6132 18.5902C26.8072 18.6924 27.0404 18.6924 27.2343 18.5902L29.457 17.42L31.6796 18.5902C31.8736 18.6924 32.1068 18.6924 32.3007 18.5902L34.5228 17.4203L36.7454 18.5902C36.9394 18.6924 37.1725 18.6924 37.3665 18.5902L39.5892 17.42L41.817 18.5905C42.011 18.6927 42.2428 18.6927 42.4368 18.5905L44.5409 17.4847L46.5142 19.4522L45.4101 21.5476C45.3079 21.7422 45.3079 21.9747 45.4101 22.169L46.58 24.3907L45.4101 26.6133C45.3079 26.8075 45.3079 27.04 45.4101 27.2343Z"
      fill="#FFEA00" />
    <defs>
      <filter id="filter0_f_37_265" x="0" y="0" width="55.9998" height="56" filterUnits="userSpaceOnUse"
        color-interpolation-filters="sRGB">
        <feFlood flood-opacity="0" result="BackgroundImageFix" />
        <feBlend mode="normal" in="SourceGraphic" in2="BackgroundImageFix" result="shape" />
        <feGaussianBlur stdDeviation="4" result="effect1_foregroundBlur_37_265" />
      </filter>
    </defs>
  </symbol>
  <symbol id="runner" viewBox="0 0 56 57" fill="none">
    <g filter="url(#filter0_f_37_278)">
      <path
        d="M42.6315 18.7915C45.5963 18.7915 48.0001 16.3837 48.0001 13.4133C48.0001 10.4432 45.5963 8.03516 42.6315 8.03516C39.6664 8.03516 37.2629 10.4432 37.2629 13.4133C37.2662 16.3824 39.6677 18.7882 42.6315 18.7915ZM42.6315 9.37969C44.8551 9.37969 46.658 11.1858 46.658 13.4133C46.658 15.6412 44.8551 17.4469 42.6315 17.4469C40.4076 17.4469 38.6051 15.6412 38.6051 13.4133C38.6071 11.1867 40.4086 9.38199 42.6315 9.37969Z"
        fill="#FFEA00" />
      <path
        d="M19.719 23.776C20.5041 23.7773 21.2577 23.4655 21.8128 22.9088L27.8679 16.8423L31.9098 20.8913C33.0658 22.0494 34.9397 22.0494 36.0958 20.8913L36.1 20.8874C37.2528 19.7286 37.2528 17.854 36.1 16.6952L30.2399 10.8263C28.9299 9.51395 26.8059 9.51395 25.4955 10.8263L17.6225 18.7127C16.7765 19.5615 16.5242 20.8375 16.9829 21.9457C17.442 23.0535 18.5213 23.776 19.719 23.776ZM18.5715 19.6659L26.4445 11.7766C27.2306 10.9895 28.5049 10.9895 29.2913 11.7766L35.1511 17.6491C35.7809 18.2823 35.7809 19.3068 35.1511 19.94L35.1468 19.9443C34.5144 20.5759 33.4911 20.5759 32.8587 19.9443L28.3424 15.4193C28.0802 15.1567 27.6556 15.1567 27.3934 15.4193L20.8632 21.9581C20.222 22.573 19.2104 22.5713 18.5715 21.9542C17.9433 21.3213 17.9433 20.2988 18.5715 19.6659Z"
        fill="#FFEA00" />
      <path
        d="M45.3157 25.5143H38.6049V22.1529C38.6049 21.8811 38.4414 21.6362 38.1904 21.5322C37.9398 21.4281 37.6511 21.4856 37.4594 21.6776L33.4329 25.7112C33.3071 25.8373 33.2363 26.0083 33.2363 26.1865V28.8756C33.2363 29.9897 34.1374 30.8924 35.2496 30.8924H45.3157C46.7981 30.8924 48 29.6887 48 28.2033C48 26.7183 46.7981 25.5143 45.3157 25.5143ZM45.3157 29.5479H35.2496C34.879 29.5479 34.5785 29.2469 34.5785 28.8756V26.4649L37.2628 23.7758V26.1865C37.2628 26.5578 37.5633 26.8588 37.9339 26.8588H45.3157C46.0569 26.8588 46.6578 27.4608 46.6578 28.2033C46.6578 28.9462 46.0569 29.5479 45.3157 29.5479Z"
        fill="#FFEA00" />
      <path
        d="M25.001 34.3211L21.761 31.0753C21.4946 30.8232 21.0781 30.8232 20.812 31.0753L8.86702 43.0419C7.71099 44.1996 7.71099 46.0769 8.86702 47.2347V47.238C10.0234 48.3944 11.896 48.3944 13.0524 47.238L24.9974 35.2717C25.2605 35.0101 25.2618 34.5847 25.001 34.3211ZM12.1054 46.2877C11.4737 46.9193 10.4503 46.9193 9.81859 46.2877H9.81597C9.18388 45.6551 9.18388 44.629 9.81597 43.9965L21.2859 32.5013L23.5769 34.7971L12.1054 46.2877Z"
        fill="#FFEA00" />
      <path
        d="M28.493 27.3215C27.7485 26.5533 26.6481 26.2464 25.6143 26.5182C24.5802 26.7903 23.7728 27.5992 23.5008 28.6351C23.2292 29.6708 23.5352 30.7731 24.3023 31.5192L29.5454 36.7703L23.1876 40.1645C21.7737 40.9736 21.2802 42.7768 22.085 44.1948L22.1803 44.3711C22.7125 45.2932 23.6952 45.861 24.7585 45.8607C25.2667 45.8614 25.7661 45.7284 26.2068 45.475L34.4838 41.0157L35.5576 40.3979C36.4643 39.8776 37.0773 38.9634 37.2156 37.9255C37.3536 36.8878 37.001 35.8446 36.2621 35.1044L28.493 27.3215ZM35.8849 37.7498C35.8033 38.3716 35.4354 38.9191 34.8911 39.229L25.5544 44.2992C24.784 44.7414 23.8016 44.4811 23.3508 43.7149L23.2548 43.5386C22.8154 42.7705 23.0736 41.7913 23.8344 41.341L30.9754 37.5299C31.1632 37.4298 31.2923 37.2463 31.3234 37.0355C31.3545 36.8248 31.2844 36.6118 31.1337 36.4611L25.2506 30.5686C24.6172 29.9341 24.6172 28.9053 25.2506 28.2708C25.884 27.6363 26.9109 27.6363 27.5443 28.2708L35.3168 36.055C35.7617 36.4988 35.9721 37.1268 35.8849 37.7498Z"
        fill="#FFEA00" />
    </g>
    <path
      d="M42.6315 18.7915C45.5963 18.7915 48.0001 16.3837 48.0001 13.4133C48.0001 10.4432 45.5963 8.03516 42.6315 8.03516C39.6664 8.03516 37.2629 10.4432 37.2629 13.4133C37.2662 16.3824 39.6677 18.7882 42.6315 18.7915ZM42.6315 9.37969C44.8551 9.37969 46.658 11.1858 46.658 13.4133C46.658 15.6412 44.8551 17.4469 42.6315 17.4469C40.4076 17.4469 38.6051 15.6412 38.6051 13.4133C38.6071 11.1867 40.4086 9.38199 42.6315 9.37969Z"
      fill="#FFEA00" />
    <path
      d="M19.719 23.776C20.5041 23.7773 21.2577 23.4655 21.8128 22.9088L27.8679 16.8423L31.9098 20.8913C33.0658 22.0494 34.9397 22.0494 36.0958 20.8913L36.1 20.8874C37.2528 19.7286 37.2528 17.854 36.1 16.6952L30.2399 10.8263C28.9299 9.51395 26.8059 9.51395 25.4955 10.8263L17.6225 18.7127C16.7765 19.5615 16.5242 20.8375 16.9829 21.9457C17.442 23.0535 18.5213 23.776 19.719 23.776ZM18.5715 19.6659L26.4445 11.7766C27.2306 10.9895 28.5049 10.9895 29.2913 11.7766L35.1511 17.6491C35.7809 18.2823 35.7809 19.3068 35.1511 19.94L35.1468 19.9443C34.5144 20.5759 33.4911 20.5759 32.8587 19.9443L28.3424 15.4193C28.0802 15.1567 27.6556 15.1567 27.3934 15.4193L20.8632 21.9581C20.222 22.573 19.2104 22.5713 18.5715 21.9542C17.9433 21.3213 17.9433 20.2988 18.5715 19.6659Z"
      fill="#FFEA00" />
    <path
      d="M45.3157 25.5143H38.6049V22.1529C38.6049 21.8811 38.4414 21.6362 38.1904 21.5322C37.9398 21.4281 37.6511 21.4856 37.4594 21.6776L33.4329 25.7112C33.3071 25.8373 33.2363 26.0083 33.2363 26.1865V28.8756C33.2363 29.9897 34.1374 30.8924 35.2496 30.8924H45.3157C46.7981 30.8924 48 29.6887 48 28.2033C48 26.7183 46.7981 25.5143 45.3157 25.5143ZM45.3157 29.5479H35.2496C34.879 29.5479 34.5785 29.2469 34.5785 28.8756V26.4649L37.2628 23.7758V26.1865C37.2628 26.5578 37.5633 26.8588 37.9339 26.8588H45.3157C46.0569 26.8588 46.6578 27.4608 46.6578 28.2033C46.6578 28.9462 46.0569 29.5479 45.3157 29.5479Z"
      fill="#FFEA00" />
    <path
      d="M25.001 34.3211L21.761 31.0753C21.4946 30.8232 21.0781 30.8232 20.812 31.0753L8.86702 43.0419C7.71099 44.1996 7.71099 46.0769 8.86702 47.2347V47.238C10.0234 48.3944 11.896 48.3944 13.0524 47.238L24.9974 35.2717C25.2605 35.0101 25.2618 34.5847 25.001 34.3211ZM12.1054 46.2877C11.4737 46.9193 10.4503 46.9193 9.81859 46.2877H9.81597C9.18388 45.6551 9.18388 44.629 9.81597 43.9965L21.2859 32.5013L23.5769 34.7971L12.1054 46.2877Z"
      fill="#FFEA00" />
    <path
      d="M28.493 27.3215C27.7485 26.5533 26.6481 26.2464 25.6143 26.5182C24.5802 26.7903 23.7728 27.5992 23.5008 28.6351C23.2292 29.6708 23.5352 30.7731 24.3023 31.5192L29.5454 36.7703L23.1876 40.1645C21.7737 40.9736 21.2802 42.7768 22.085 44.1948L22.1803 44.3711C22.7125 45.2932 23.6952 45.861 24.7585 45.8607C25.2667 45.8614 25.7661 45.7284 26.2068 45.475L34.4838 41.0157L35.5576 40.3979C36.4643 39.8776 37.0773 38.9634 37.2156 37.9255C37.3536 36.8878 37.001 35.8446 36.2621 35.1044L28.493 27.3215ZM35.8849 37.7498C35.8033 38.3716 35.4354 38.9191 34.8911 39.229L25.5544 44.2992C24.784 44.7414 23.8016 44.4811 23.3508 43.7149L23.2548 43.5386C22.8154 42.7705 23.0736 41.7913 23.8344 41.341L30.9754 37.5299C31.1632 37.4298 31.2923 37.2463 31.3234 37.0355C31.3545 36.8248 31.2844 36.6118 31.1337 36.4611L25.2506 30.5686C24.6172 29.9341 24.6172 28.9053 25.2506 28.2708C25.884 27.6363 26.9109 27.6363 27.5443 28.2708L35.3168 36.055C35.7617 36.4988 35.9721 37.1268 35.8849 37.7498Z"
      fill="#FFEA00" />
    <defs>
      <filter id="filter0_f_37_278" x="0" y="0.0351562" width="56.0002" height="56.0701" filterUnits="userSpaceOnUse"
        color-interpolation-filters="sRGB">
        <feFlood flood-opacity="0" result="BackgroundImageFix" />
        <feBlend mode="normal" in="SourceGraphic" in2="BackgroundImageFix" result="shape" />
        <feGaussianBlur stdDeviation="4" result="effect1_foregroundBlur_37_278" />
      </filter>
    </defs>
  </symbol>
  <symbol id="diamond" viewBox="0 0 56 52" fill="none">
    <g filter="url(#filter0_f_37_292)">
      <path
        d="M47.9906 19.4458C47.9953 19.4184 47.9979 19.3918 47.9993 19.3638C48.0006 19.3311 47.9999 19.2998 47.9973 19.2671C47.9946 19.2391 47.9906 19.2124 47.9839 19.1851C47.9766 19.1531 47.9666 19.1224 47.9546 19.0917C47.9486 19.0757 47.9473 19.059 47.9399 19.0437C47.9346 19.0324 47.9253 19.0237 47.9193 19.0124C47.9133 19.001 47.9106 18.989 47.9039 18.9777L41.2357 8.30852C41.205 8.25985 41.169 8.21584 41.1283 8.17716L41.1263 8.17583C41.069 8.12181 41.001 8.08314 40.9283 8.05246C40.919 8.04846 40.913 8.04046 40.903 8.03646C40.8956 8.03379 40.8876 8.03513 40.8803 8.03313C40.8129 8.01045 40.7436 7.99512 40.6709 7.99512H15.3317C15.2596 7.99512 15.191 8.01045 15.1249 8.03246C15.1176 8.03446 15.1103 8.03313 15.1036 8.03579C15.0936 8.03913 15.0876 8.04713 15.0783 8.05113C15.0089 8.0798 14.9436 8.11715 14.8869 8.16782C14.8835 8.17116 14.8789 8.17316 14.8755 8.17583C14.8342 8.2145 14.7975 8.25918 14.7669 8.30786L8.09863 18.977C8.09196 18.9877 8.08929 19.0004 8.08329 19.0117C8.07729 19.023 8.06796 19.0317 8.06262 19.043C8.05529 19.0584 8.05395 19.075 8.04728 19.091C8.03528 19.1217 8.02528 19.1524 8.01794 19.1844C8.01194 19.2117 8.00727 19.2391 8.00461 19.2671C7.99994 19.2998 7.99927 19.3318 8.00061 19.3638C8.00194 19.3918 8.00461 19.4184 8.00928 19.4458C8.01461 19.4778 8.02328 19.5091 8.03395 19.5405C8.04262 19.5665 8.05195 19.5918 8.06395 19.6172C8.06996 19.6292 8.07196 19.6425 8.07862 19.6545C8.08929 19.6738 8.1053 19.6885 8.1173 19.7065C8.12664 19.7205 8.13197 19.7359 8.14331 19.7492L27.4738 43.7455C27.4752 43.7475 27.4765 43.7488 27.4778 43.7501L27.4812 43.7548C27.4832 43.7575 27.4865 43.7581 27.4885 43.7608C27.5432 43.8268 27.6112 43.8768 27.6852 43.9168C27.7052 43.9275 27.7239 43.9368 27.7445 43.9455C27.8252 43.9795 27.9106 44.0035 27.9999 44.0035C28.076 44.0035 28.1526 43.9902 28.2287 43.9628C28.24 43.9588 28.2473 43.9495 28.2587 43.9448C28.2927 43.9308 28.3193 43.9082 28.35 43.8888C28.4007 43.8568 28.448 43.8235 28.4874 43.7801C28.4967 43.7701 28.5107 43.7655 28.5194 43.7548L47.8572 19.7492C47.8679 19.7359 47.8732 19.7199 47.8832 19.7065C47.8959 19.6885 47.9113 19.6738 47.9219 19.6545C47.9286 19.6425 47.9306 19.6292 47.9366 19.6172C47.9486 19.5918 47.9579 19.5672 47.9666 19.5405C47.9759 19.5091 47.9853 19.4785 47.9906 19.4458ZM29.4016 9.32943H39.71L36.4692 18.0281L29.4016 9.32943ZM35.2676 18.6649H20.7329L27.9999 9.72085L35.2676 18.6649ZM19.484 18.0861L16.2839 9.32943H26.5989L19.484 18.0861ZM35.7351 19.9986L27.8832 41.0742L20.1821 19.9986H35.7351ZM40.8216 10.165L46.1342 18.6656H37.6549L40.8216 10.165ZM15.1723 10.1736L18.275 18.6649H9.86571L15.1723 10.1736ZM18.7625 19.9986L25.9901 39.7792L10.0558 19.9986H18.7625ZM29.5983 40.29L37.1581 19.9986H45.9441L29.5983 40.29Z"
        fill="#FFEA00" />
    </g>
    <path
      d="M47.9906 19.4458C47.9953 19.4184 47.9979 19.3918 47.9993 19.3638C48.0006 19.3311 47.9999 19.2998 47.9973 19.2671C47.9946 19.2391 47.9906 19.2124 47.9839 19.1851C47.9766 19.1531 47.9666 19.1224 47.9546 19.0917C47.9486 19.0757 47.9473 19.059 47.9399 19.0437C47.9346 19.0324 47.9253 19.0237 47.9193 19.0124C47.9133 19.001 47.9106 18.989 47.9039 18.9777L41.2357 8.30852C41.205 8.25985 41.169 8.21584 41.1283 8.17716L41.1263 8.17583C41.069 8.12181 41.001 8.08314 40.9283 8.05246C40.919 8.04846 40.913 8.04046 40.903 8.03646C40.8956 8.03379 40.8876 8.03513 40.8803 8.03313C40.8129 8.01045 40.7436 7.99512 40.6709 7.99512H15.3317C15.2596 7.99512 15.191 8.01045 15.1249 8.03246C15.1176 8.03446 15.1103 8.03313 15.1036 8.03579C15.0936 8.03913 15.0876 8.04713 15.0783 8.05113C15.0089 8.0798 14.9436 8.11715 14.8869 8.16782C14.8835 8.17116 14.8789 8.17316 14.8755 8.17583C14.8342 8.2145 14.7975 8.25918 14.7669 8.30786L8.09863 18.977C8.09196 18.9877 8.08929 19.0004 8.08329 19.0117C8.07729 19.023 8.06796 19.0317 8.06262 19.043C8.05529 19.0584 8.05395 19.075 8.04728 19.091C8.03528 19.1217 8.02528 19.1524 8.01794 19.1844C8.01194 19.2117 8.00727 19.2391 8.00461 19.2671C7.99994 19.2998 7.99927 19.3318 8.00061 19.3638C8.00194 19.3918 8.00461 19.4184 8.00928 19.4458C8.01461 19.4778 8.02328 19.5091 8.03395 19.5405C8.04262 19.5665 8.05195 19.5918 8.06395 19.6172C8.06996 19.6292 8.07196 19.6425 8.07862 19.6545C8.08929 19.6738 8.1053 19.6885 8.1173 19.7065C8.12664 19.7205 8.13197 19.7359 8.14331 19.7492L27.4738 43.7455C27.4752 43.7475 27.4765 43.7488 27.4778 43.7501L27.4812 43.7548C27.4832 43.7575 27.4865 43.7581 27.4885 43.7608C27.5432 43.8268 27.6112 43.8768 27.6852 43.9168C27.7052 43.9275 27.7239 43.9368 27.7445 43.9455C27.8252 43.9795 27.9106 44.0035 27.9999 44.0035C28.076 44.0035 28.1526 43.9902 28.2287 43.9628C28.24 43.9588 28.2473 43.9495 28.2587 43.9448C28.2927 43.9308 28.3193 43.9082 28.35 43.8888C28.4007 43.8568 28.448 43.8235 28.4874 43.7801C28.4967 43.7701 28.5107 43.7655 28.5194 43.7548L47.8572 19.7492C47.8679 19.7359 47.8732 19.7199 47.8832 19.7065C47.8959 19.6885 47.9113 19.6738 47.9219 19.6545C47.9286 19.6425 47.9306 19.6292 47.9366 19.6172C47.9486 19.5918 47.9579 19.5672 47.9666 19.5405C47.9759 19.5091 47.9853 19.4785 47.9906 19.4458ZM29.4016 9.32943H39.71L36.4692 18.0281L29.4016 9.32943ZM35.2676 18.6649H20.7329L27.9999 9.72085L35.2676 18.6649ZM19.484 18.0861L16.2839 9.32943H26.5989L19.484 18.0861ZM35.7351 19.9986L27.8832 41.0742L20.1821 19.9986H35.7351ZM40.8216 10.165L46.1342 18.6656H37.6549L40.8216 10.165ZM15.1723 10.1736L18.275 18.6649H9.86571L15.1723 10.1736ZM18.7625 19.9986L25.9901 39.7792L10.0558 19.9986H18.7625ZM29.5983 40.29L37.1581 19.9986H45.9441L29.5983 40.29Z"
      fill="#FFEA00" />
    <defs>
      <filter id="filter0_f_37_292" x="0" y="-0.00488281" width="56" height="52.0083" filterUnits="userSpaceOnUse"
        color-interpolation-filters="sRGB">
        <feFlood flood-opacity="0" result="BackgroundImageFix" />
        <feBlend mode="normal" in="SourceGraphic" in2="BackgroundImageFix" result="shape" />
        <feGaussianBlur stdDeviation="4" result="effect1_foregroundBlur_37_292" />
      </filter>
    </defs>
  </symbol>
  <symbol id="firework" viewBox="0 0 56 56" fill="none">
    <g filter="url(#filter0_f_38_296)">
      <path
        d="M9.83937 27.4128H8.58708C8.26286 27.4128 8 27.6757 8 27.9999C8 28.3242 8.26286 28.587 8.58708 28.587H9.83937C10.1636 28.587 10.4265 28.3242 10.4265 27.9999C10.4265 27.6757 10.1636 27.4128 9.83937 27.4128Z"
        fill="#FFEA00" />
      <path
        d="M43.6555 27.413H32.3037C32.2798 27.2369 32.2461 27.0639 32.2016 26.8952L40.9529 23.2703C41.2525 23.1462 41.3948 22.8027 41.2707 22.5032C41.1466 22.2037 40.8031 22.0615 40.5036 22.1855L31.7504 25.8112C31.6614 25.6591 31.5637 25.5127 31.4573 25.3731L42.1422 14.6882C42.3715 14.4589 42.3715 14.0872 42.1422 13.858C41.913 13.6287 41.5412 13.6287 41.312 13.858L30.6271 24.5429C30.4875 24.4366 30.3411 24.3389 30.189 24.2498L33.8147 15.4966C33.9388 15.197 33.7966 14.8536 33.497 14.7295C33.1973 14.6055 32.854 14.7476 32.7299 15.0473L29.105 23.7986C28.9363 23.7541 28.7633 23.7204 28.5872 23.6965V12.3447C28.5872 12.0204 28.3244 11.7576 28.0002 11.7576C27.6759 11.7576 27.4131 12.0204 27.4131 12.3447V23.6964C27.2369 23.7203 27.064 23.754 26.8953 23.7985L23.2703 15.0472C23.1462 14.7476 22.8027 14.6054 22.5032 14.7295C22.2037 14.8535 22.0614 15.197 22.1855 15.4965L25.8112 24.2497C25.6591 24.3388 25.5127 24.4365 25.3731 24.5429L14.6882 13.8579C14.4589 13.6286 14.0872 13.6286 13.858 13.8579C13.6287 14.0872 13.6287 14.4589 13.858 14.6881L24.5429 25.3731C24.4366 25.5126 24.3389 25.659 24.2498 25.8111L15.4966 22.1855C15.1971 22.0615 14.8536 22.2037 14.7295 22.5032C14.6055 22.8028 14.7477 23.1462 15.0473 23.2703L23.7985 26.8952C23.7541 27.0639 23.7204 27.2369 23.6964 27.413H12.3447C12.0204 27.413 11.7576 27.6758 11.7576 28.0001C11.7576 28.3243 12.0204 28.5872 12.3447 28.5872H23.6964C23.7202 28.7632 23.754 28.9362 23.7984 29.105L15.0472 32.7299C14.7476 32.8539 14.6054 33.1974 14.7295 33.4969C14.8231 33.723 15.0417 33.8595 15.2721 33.8595C15.347 33.8595 15.4231 33.8451 15.4965 33.8146L24.2497 30.1889C24.3388 30.341 24.4365 30.4874 24.5429 30.6269L13.8579 41.3119C13.6286 41.5411 13.6286 41.9129 13.8579 42.1421C13.9725 42.2567 14.1228 42.314 14.273 42.314C14.4232 42.314 14.5735 42.2567 14.6881 42.1421L25.3731 31.4571C25.5126 31.5635 25.659 31.6612 25.8111 31.7503L22.1854 40.5035C22.0614 40.803 22.2036 41.1465 22.5032 41.2705C22.5767 41.301 22.6528 41.3154 22.7276 41.3154C22.958 41.3154 23.1766 41.1789 23.2702 40.9528L26.8951 32.2015C27.0639 32.2459 27.2368 32.2796 27.4129 32.3036V43.6553C27.4129 43.9796 27.6758 44.2424 28 44.2424C28.3242 44.2424 28.5871 43.9796 28.5871 43.6553V32.3037C28.7632 32.2798 28.9361 32.2461 29.1049 32.2016L32.7298 40.9529C32.8234 41.179 33.042 41.3155 33.2724 41.3155C33.3473 41.3155 33.4234 41.3011 33.4968 41.2707C33.7964 41.1466 33.9386 40.8031 33.8146 40.5036L30.1889 31.7504C30.341 31.6614 30.4874 31.5637 30.6269 31.4573L41.3119 42.1422C41.4265 42.2568 41.5767 42.3142 41.727 42.3142C41.8772 42.3142 42.0275 42.2569 42.1421 42.1422C42.3713 41.913 42.3713 41.5412 42.1421 41.312L31.4571 30.6271C31.5634 30.4875 31.6611 30.3411 31.7503 30.189L40.5035 33.8148C40.5769 33.8452 40.6531 33.8596 40.7279 33.8596C40.9583 33.8596 41.1769 33.7231 41.2705 33.4971C41.3946 33.1975 41.2524 32.8541 40.9528 32.73L32.2015 29.1051C32.2459 28.9364 32.2796 28.7634 32.3036 28.5873H43.6553C43.9796 28.5873 44.2424 28.3245 44.2424 28.0002C44.2424 27.676 43.9797 27.413 43.6555 27.413ZM28.0001 31.1703C26.252 31.1703 24.8298 29.7482 24.8298 28.0001C24.8298 26.252 26.252 24.8298 28.0001 24.8298C29.7482 24.8298 31.1703 26.252 31.1703 28.0001C31.1703 29.7482 29.7482 31.1703 28.0001 31.1703Z"
        fill="#FFEA00" />
      <path
        d="M47.413 27.4128H46.1608C45.8366 27.4128 45.5737 27.6757 45.5737 27.9999C45.5737 28.3242 45.8366 28.587 46.1608 28.587H47.413C47.7373 28.587 48.0001 28.3242 48.0001 27.9999C48.0001 27.6757 47.7373 27.4128 47.413 27.4128Z"
        fill="#FFEA00" />
      <path
        d="M27.9999 45.5737C27.6757 45.5737 27.4128 45.8366 27.4128 46.1608V47.413C27.4128 47.7373 27.6757 48.0001 27.9999 48.0001C28.3242 48.0001 28.587 47.7373 28.587 47.413V46.1608C28.587 45.8366 28.3242 45.5737 27.9999 45.5737Z"
        fill="#FFEA00" />
      <path
        d="M27.9999 10.4264C28.3242 10.4264 28.587 10.1635 28.587 9.8393V8.58708C28.587 8.26286 28.3242 8 27.9999 8C27.6757 8 27.4128 8.26286 27.4128 8.58708V9.8393C27.4128 10.1635 27.6757 10.4264 27.9999 10.4264Z"
        fill="#FFEA00" />
    </g>
    <path
      d="M9.83937 27.4128H8.58708C8.26286 27.4128 8 27.6757 8 27.9999C8 28.3242 8.26286 28.587 8.58708 28.587H9.83937C10.1636 28.587 10.4265 28.3242 10.4265 27.9999C10.4265 27.6757 10.1636 27.4128 9.83937 27.4128Z"
      fill="#FFEA00" />
    <path
      d="M43.6555 27.413H32.3037C32.2798 27.2369 32.2461 27.0639 32.2016 26.8952L40.9529 23.2703C41.2525 23.1462 41.3948 22.8027 41.2707 22.5032C41.1466 22.2037 40.8031 22.0615 40.5036 22.1855L31.7504 25.8112C31.6614 25.6591 31.5637 25.5127 31.4573 25.3731L42.1422 14.6882C42.3715 14.4589 42.3715 14.0872 42.1422 13.858C41.913 13.6287 41.5412 13.6287 41.312 13.858L30.6271 24.5429C30.4875 24.4366 30.3411 24.3389 30.189 24.2498L33.8147 15.4966C33.9388 15.197 33.7966 14.8536 33.497 14.7295C33.1973 14.6055 32.854 14.7476 32.7299 15.0473L29.105 23.7986C28.9363 23.7541 28.7633 23.7204 28.5872 23.6965V12.3447C28.5872 12.0204 28.3244 11.7576 28.0002 11.7576C27.6759 11.7576 27.4131 12.0204 27.4131 12.3447V23.6964C27.2369 23.7203 27.064 23.754 26.8953 23.7985L23.2703 15.0472C23.1462 14.7476 22.8027 14.6054 22.5032 14.7295C22.2037 14.8535 22.0614 15.197 22.1855 15.4965L25.8112 24.2497C25.6591 24.3388 25.5127 24.4365 25.3731 24.5429L14.6882 13.8579C14.4589 13.6286 14.0872 13.6286 13.858 13.8579C13.6287 14.0872 13.6287 14.4589 13.858 14.6881L24.5429 25.3731C24.4366 25.5126 24.3389 25.659 24.2498 25.8111L15.4966 22.1855C15.1971 22.0615 14.8536 22.2037 14.7295 22.5032C14.6055 22.8028 14.7477 23.1462 15.0473 23.2703L23.7985 26.8952C23.7541 27.0639 23.7204 27.2369 23.6964 27.413H12.3447C12.0204 27.413 11.7576 27.6758 11.7576 28.0001C11.7576 28.3243 12.0204 28.5872 12.3447 28.5872H23.6964C23.7202 28.7632 23.754 28.9362 23.7984 29.105L15.0472 32.7299C14.7476 32.8539 14.6054 33.1974 14.7295 33.4969C14.8231 33.723 15.0417 33.8595 15.2721 33.8595C15.347 33.8595 15.4231 33.8451 15.4965 33.8146L24.2497 30.1889C24.3388 30.341 24.4365 30.4874 24.5429 30.6269L13.8579 41.3119C13.6286 41.5411 13.6286 41.9129 13.8579 42.1421C13.9725 42.2567 14.1228 42.314 14.273 42.314C14.4232 42.314 14.5735 42.2567 14.6881 42.1421L25.3731 31.4571C25.5126 31.5635 25.659 31.6612 25.8111 31.7503L22.1854 40.5035C22.0614 40.803 22.2036 41.1465 22.5032 41.2705C22.5767 41.301 22.6528 41.3154 22.7276 41.3154C22.958 41.3154 23.1766 41.1789 23.2702 40.9528L26.8951 32.2015C27.0639 32.2459 27.2368 32.2796 27.4129 32.3036V43.6553C27.4129 43.9796 27.6758 44.2424 28 44.2424C28.3242 44.2424 28.5871 43.9796 28.5871 43.6553V32.3037C28.7632 32.2798 28.9361 32.2461 29.1049 32.2016L32.7298 40.9529C32.8234 41.179 33.042 41.3155 33.2724 41.3155C33.3473 41.3155 33.4234 41.3011 33.4968 41.2707C33.7964 41.1466 33.9386 40.8031 33.8146 40.5036L30.1889 31.7504C30.341 31.6614 30.4874 31.5637 30.6269 31.4573L41.3119 42.1422C41.4265 42.2568 41.5767 42.3142 41.727 42.3142C41.8772 42.3142 42.0275 42.2569 42.1421 42.1422C42.3713 41.913 42.3713 41.5412 42.1421 41.312L31.4571 30.6271C31.5634 30.4875 31.6611 30.3411 31.7503 30.189L40.5035 33.8148C40.5769 33.8452 40.6531 33.8596 40.7279 33.8596C40.9583 33.8596 41.1769 33.7231 41.2705 33.4971C41.3946 33.1975 41.2524 32.8541 40.9528 32.73L32.2015 29.1051C32.2459 28.9364 32.2796 28.7634 32.3036 28.5873H43.6553C43.9796 28.5873 44.2424 28.3245 44.2424 28.0002C44.2424 27.676 43.9797 27.413 43.6555 27.413ZM28.0001 31.1703C26.252 31.1703 24.8298 29.7482 24.8298 28.0001C24.8298 26.252 26.252 24.8298 28.0001 24.8298C29.7482 24.8298 31.1703 26.252 31.1703 28.0001C31.1703 29.7482 29.7482 31.1703 28.0001 31.1703Z"
      fill="#FFEA00" />
    <path
      d="M47.413 27.4128H46.1608C45.8366 27.4128 45.5737 27.6757 45.5737 27.9999C45.5737 28.3242 45.8366 28.587 46.1608 28.587H47.413C47.7373 28.587 48.0001 28.3242 48.0001 27.9999C48.0001 27.6757 47.7373 27.4128 47.413 27.4128Z"
      fill="#FFEA00" />
    <path
      d="M27.9999 45.5737C27.6757 45.5737 27.4128 45.8366 27.4128 46.1608V47.413C27.4128 47.7373 27.6757 48.0001 27.9999 48.0001C28.3242 48.0001 28.587 47.7373 28.587 47.413V46.1608C28.587 45.8366 28.3242 45.5737 27.9999 45.5737Z"
      fill="#FFEA00" />
    <path
      d="M27.9999 10.4264C28.3242 10.4264 28.587 10.1635 28.587 9.8393V8.58708C28.587 8.26286 28.3242 8 27.9999 8C27.6757 8 27.4128 8.26286 27.4128 8.58708V9.8393C27.4128 10.1635 27.6757 10.4264 27.9999 10.4264Z"
      fill="#FFEA00" />
    <defs>
      <filter id="filter0_f_38_296" x="0" y="0" width="56" height="56" filterUnits="userSpaceOnUse"
        color-interpolation-filters="sRGB">
        <feFlood flood-opacity="0" result="BackgroundImageFix" />
        <feBlend mode="normal" in="SourceGraphic" in2="BackgroundImageFix" result="shape" />
        <feGaussianBlur stdDeviation="4" result="effect1_foregroundBlur_38_296" />
      </filter>
    </defs>
  </symbol>
</svg>