<svg width="33" height="33" viewBox="0 0 33 33" fill="none" xmlns="http://www.w3.org/2000/svg">
<g clip-path="url(#clip0_177_1845)">
<path d="M11.5503 5.94006C5.90826 5.94006 1.32031 10.528 1.32031 16.1701C1.32031 21.8121 5.90826 26.4001 11.5503 26.4001C17.1924 26.4001 21.7803 21.8121 21.7803 16.1701C21.7803 10.528 17.1924 5.94006 11.5503 5.94006ZM17.1603 11.8801C17.3291 11.8801 17.4979 11.9444 17.627 12.0734C17.885 12.3315 17.885 12.7486 17.627 13.0067L9.70695 20.9267C9.57825 21.0554 9.40927 21.1201 9.24031 21.1201C9.07135 21.1201 8.90237 21.0554 8.77367 20.9267L5.47367 17.6267C5.21561 17.3686 5.21561 16.9515 5.47367 16.6934C5.73173 16.4354 6.14889 16.4354 6.40695 16.6934L9.24031 19.5268L16.6937 12.0734C16.8227 11.9444 16.9915 11.8801 17.1603 11.8801ZM25.0803 15.8401C24.9053 15.8401 24.7374 15.9096 24.6136 16.0334C24.4898 16.1571 24.4203 16.325 24.4203 16.5001C24.4203 16.6751 24.4898 16.843 24.6136 16.9668C24.7374 17.0905 24.9053 17.1601 25.0803 17.1601H33.0003V15.8401H25.0803Z" fill="url(#paint0_linear_177_1845)"/>
</g>
<defs>
<linearGradient id="paint0_linear_177_1845" x1="37.0619" y1="5.94006" x2="14.9161" y2="36.32" gradientUnits="userSpaceOnUse">
<stop offset="0.25" stop-color="#3B768F"/>
<stop offset="0.536458" stop-color="#3EC6FF"/>
<stop offset="0.817708" stop-color="#3B768F"/>
</linearGradient>
<clipPath id="clip0_177_1845">
<rect width="33" height="33" fill="white"/>
</clipPath>
</defs>
</svg>
