<svg width="40" height="40" viewBox="0 0 40 40" fill="none" xmlns="http://www.w3.org/2000/svg">
<path d="M20 0.800003C13.1438 0.800003 7.39375 5.625 5.95 12.05C6.09688 12.0344 6.25 12 6.4 12C6.80938 12 7.20312 12.0844 7.575 12.2C8.93125 6.59063 13.9781 2.4 20 2.4C26.0188 2.4 31.0688 6.59063 32.425 12.2C32.7969 12.0844 33.1875 12 33.6 12C33.75 12 33.9031 12.0344 34.05 12.05C32.6063 5.625 26.8531 0.800003 20 0.800003ZM6.4 13.6C5.07812 13.6 4 14.6781 4 16V28C4 29.3219 5.07812 30.4 6.4 30.4C7.72188 30.4 8.8 29.3219 8.8 28V16C8.8 14.6781 7.72188 13.6 6.4 13.6ZM33.6 13.6C32.2781 13.6 31.2 14.6781 31.2 16V28C31.2 29.3219 32.2781 30.4 33.6 30.4C34.9219 30.4 36 29.3219 36 28V16C36 14.6781 34.9219 13.6 33.6 13.6ZM2.4 16.1C0.95625 17.2594 0 19.4344 0 22C0 24.5656 0.95625 26.7406 2.4 27.9V16.1ZM37.6 16.1V27.9C39.0438 26.7406 40 24.5656 40 22C40 19.4344 39.0438 17.2594 37.6 16.1ZM32.475 31.825C31.7688 33.9969 29.9344 35.2 27.2 35.2H26.325C26.3781 35.4594 26.4 35.725 26.4 36C26.4 36.275 26.3781 36.5406 26.325 36.8H27.2C30.7938 36.8 33.2812 34.9938 34.1 31.95C33.9313 31.9719 33.7719 32 33.6 32C33.2062 32 32.8344 31.9313 32.475 31.825ZM18.4 33.6C17.0781 33.6 16 34.6781 16 36C16 37.3219 17.0781 38.4 18.4 38.4H22.4C23.7219 38.4 24.8 37.3219 24.8 36C24.8 34.6781 23.7219 33.6 22.4 33.6H18.4Z" fill="white"/>
</svg>
