<svg width="25" height="25" viewBox="0 0 25 25" fill="none" xmlns="http://www.w3.org/2000/svg">
<path d="M5.91953 1.49415C5.53477 1.4629 5.10703 1.57423 4.7125 1.85157C4.36485 2.09376 3.61485 2.68946 2.91367 3.36329C2.56406 3.69923 2.23008 4.04884 1.97227 4.39259C1.7125 4.73634 1.48594 5.05079 1.49961 5.50782C1.51328 5.91798 1.5543 7.13087 2.42735 8.99024C3.30039 10.8477 4.99375 13.3965 8.29649 16.7012C11.6012 20.0059 14.15 21.6992 16.0074 22.5723C17.8648 23.4453 19.0797 23.4863 19.4898 23.5C19.9449 23.5137 20.2594 23.2871 20.6031 23.0274C20.9469 22.7676 21.2965 22.4356 21.6324 22.0859C22.3043 21.3848 22.9 20.6348 23.1422 20.2871C23.6949 19.5 23.6031 18.5703 22.9879 18.1387C22.6012 17.8672 19.0445 15.5 18.5094 15.1719C17.9664 14.8399 17.3414 14.9902 16.7828 15.2852C16.3434 15.5176 15.1539 16.1992 14.8141 16.3945C14.5582 16.2324 13.5875 15.5859 11.4996 13.4981C9.40977 11.4102 8.76524 10.4395 8.60313 10.1836C8.79844 9.84376 9.47813 8.66017 9.7125 8.2129C10.0055 7.65626 10.1695 7.0254 9.81992 6.47853C9.67344 6.2461 9.00742 5.23243 8.33555 4.21485C7.66172 3.19728 7.02305 2.23243 6.85703 2.00196V2.00001C6.64024 1.70118 6.30235 1.5254 5.91953 1.49415ZM5.82774 2.51564C5.96446 2.53321 6.04649 2.5879 6.04649 2.5879C6.12656 2.69923 6.82774 3.75001 7.49961 4.76564C8.17149 5.78321 8.85703 6.82618 8.97617 7.01564C8.99571 7.04493 9.02305 7.37696 8.82774 7.7461V7.74806C8.60703 8.16798 7.57774 9.96681 7.57774 9.96681L7.43516 10.2188L7.58164 10.4688C7.58164 10.4688 8.34922 11.7637 10.7906 14.2051C13.234 16.6465 14.5289 17.416 14.5289 17.416L14.7789 17.5625L15.0309 17.4199C15.0309 17.4199 16.8258 16.3926 17.2496 16.1699C17.6188 15.9766 17.9508 16.002 17.9898 16.0254C18.3356 16.2383 22.1773 18.791 22.4137 18.957C22.4215 18.9629 22.6305 19.2793 22.3258 19.7129H22.3238C22.1402 19.9766 21.5387 20.7402 20.9117 21.3926C20.5973 21.7188 20.275 22.0234 20.0016 22.2285C19.7281 22.4336 19.484 22.4981 19.5231 22.5C19.0973 22.4863 18.1578 22.4766 16.4332 21.666C14.7086 20.8574 12.2477 19.2383 9.00352 15.9922C5.76133 12.75 4.14219 10.2891 3.33164 8.56251C2.52305 6.8379 2.51328 5.89845 2.49961 5.47462C2.50156 5.51368 2.56602 5.26759 2.7711 4.99415C2.97617 4.72071 3.27891 4.39649 3.60508 4.08204C4.25938 3.45509 5.0211 2.85353 5.28477 2.66993V2.67189C5.50156 2.51954 5.69102 2.50001 5.82774 2.51564Z" fill="url(#paint0_linear_177_1726)"/>
<defs>
<linearGradient id="paint0_linear_177_1726" x1="12.5034" y1="1.48904" x2="12.5034" y2="23.5006" gradientUnits="userSpaceOnUse">
<stop stop-color="#4ABCEC"/>
<stop offset="1" stop-color="#4A8BEC"/>
</linearGradient>
</defs>
</svg>
